<svg width="410" height="410" xmlns="http://www.w3.org/2000/svg" version="1.1" xml:space="preserve">

 <metadata>image/svg+xmlOpenclipartOak Tree redux2013-10-05T08:22:17Oak Treehttps://openclipart.org/detail/184572/oak-tree-redux-by-polylingua-184572PolyLingua50kbaumoaktreewoodwoodenwoods</metadata>
 <g>
  <title>Layer 1</title>
  <g transform="matrix(1.2503 0 0 1.2503 -0.0017518 54.491)" id="g4105">
   <path fill="#234323" d="m193.54885,184.14499c10.391,-1.821 13.71,-8.499 13.71,-16.176c0,-0.52082 -1.1122,-7.3529 -0.72158,-7.3529c1.432,0 36.8,-24.03 36.8,-29.412c0,-4.018 1.742,-15.28 -0.72157,-18.627c-6.7826,-9.2154 -49.739,-9.2969 -62.777,-13.726c-3.1746,-1.0783 -11.753,-2.5923 -15.153,-4.902c-3.6785,-2.4989 -19,-9.2326 -25.977,-6.8627c-4.0439,1.3736 -10.172,3.7002 -15.153,5.3922c-2.684,0.91166 -4.8098,5.0651 -7.2158,5.8824c-11.394,3.8701 -14.432,10.586 -14.432,19.608c0,5.2472 -11.586,11.247 -6.4942,14.706c2.6706,1.8142 8.0357,6.16 10.824,8.8235c5.3275,5.0898 21.679,-3.9002 23.812,-2.451c2.5869,1.7574 2.9848,5.4591 5.7726,7.3529c1.0514,0.71429 8.6429,0.96951 11.545,2.9412c5.9102,4.0151 -10.673,9.9064 2.1647,18.627c3.0053,2.0416 11.826,1.321 15.153,2.451c10.729,3.6445 23.256,8.6466 28.863,13.725l0.00085,0.0004z" id="path4103"/>
   <g id="g4067">
    <path d="m164.06885,86.30499c3.3857,0.34454 4.2388,-10.125 9.8315,-12.921c1.274,-0.63699 2.4842,-1.9224 3.3708,-2.809c1.6708,-1.6708 15.256,-5.3371 18.258,-5.3371c1.812,0 4.9525,-0.07352 5.618,-1.4045c0.77716,-1.5543 3.0986,-4.7579 2.2472,-6.4607c-2.0872,-4.1743 -28.618,-1.4719 -30.056,1.4045c-0.60437,1.2087 -4.1694,3.3267 -5.618,4.7753c-1.393,1.393 -2.0805,4.2706 -3.6517,5.0562c-1.0297,0.51485 -3.2308,1.5454 -3.9326,2.2472c-0.32771,0.32772 -1.6386,-0.32772 -1.9663,0c-3.3617,3.3617 -18.215,-1.2046 -23.034,0c-11.11,2.7774 -14.93,9.2908 -22.753,13.202c-3.6451,1.8226 -20.222,2.5255 -21.067,3.3708c-12.03,12.03 11.927,14.182 17.416,16.011c1.2385,0.41283 3.4094,3.9712 4.2135,4.7753c2.7117,2.7117 6.322,5.6873 13.202,2.2472c0.99708,-0.49854 3.735,-0.44751 4.2135,-1.4045c0.54883,-1.0976 1.7197,-2.5624 2.5281,-3.3708c1.4368,-1.4368 -0.83583,-12.647 0.2809,-13.764c1.3831,-1.3831 3.2836,-3.5645 4.7753,-5.0562c1.6471,-1.6471 4.2338,0.5618 5.3371,0.5618c0.0841,0 2.5649,2.0031 2.809,2.2472c1.47,1.47 16.59,-2.538 17.978,-3.3708l-0.0003,0.0001z" fill="#236523" id="path4043"/>
    <path d="m153.39885,262.99499c9.6284,-0.0366 28.562,0.93278 33.708,-4.2135c1.0505,-1.0505 -3.8955,-5.5437 -4.4944,-6.7416c-1.5856,-3.1712 0.80063,-8.469 -1.6854,-10.955c-0.93238,-0.93238 0.0603,-9.6109 0.56179,-10.112c0.0885,-0.0885 -0.0535,-26.177 -0.2809,-26.404c-1.1091,-1.1091 -1.3398,-3.8032 -2.2472,-5.618c-0.49895,-0.99792 0.43588,-1.7144 0.5618,-1.9663c0.63104,-1.2621 -1.5328,-3.2425 -0.2809,-4.4944c2.1252,-2.1252 3.5354,-5.7826 5.618,-7.8652c1.2893,-1.2893 0.25042,-3.9021 1.1236,-4.7753c1.5915,-1.5915 2.573,-23.921 4.7753,-26.124c3.0911,-3.0911 4.3189,-6.5661 7.3034,-9.5506c0.37058,-0.37059 1.9663,-1.1929 1.9663,-1.6854c0,-2.3497 20.325,-11.135 23.034,-8.427c0.70565,0.70565 2.3842,1.8224 3.0899,2.5281c2.1099,2.1098 3.3067,7.2393 6.1798,10.112c1.9516,1.9516 8.5086,3.8509 11.236,1.1236c0.31109,-0.31109 3.8864,-1.7316 3.6517,-1.9663c-1.4816,-1.4816 -5.5612,0.33767 -7.3034,-1.4045c-0.80393,-0.80393 -0.40686,-1.6564 -0.8427,-2.5281c-1.6159,-3.2319 -3.8286,-6.6376 -5.618,-8.427c-0.93635,-0.93634 -5.9036,-4.485 -5.3371,-5.618c1.3305,-2.661 16.202,-7.394 14.326,-9.2697c-0.12261,-0.12261 -13.937,-0.38912 -14.045,-0.2809c-0.42362,0.42361 -6.5648,4.6712 -7.5843,3.6517c-2.6596,-2.6596 4.542,-9.503 2.5281,-11.517c-0.55332,-0.55332 -2.145,-0.74049 -2.809,-1.4045c-0.84409,-0.84409 -1.758,0.63436 -1.9663,0.84269c-5.2516,5.2516 -2.3015,13.818 -3.9326,15.449c-1.0253,1.0253 -11.972,6.4607 -14.326,6.4607c-0.005,0 -4.7753,0.91332 -4.7753,0.56179c0,-1.2159 -1.2428,-4.537 -0.2809,-6.4607c1.4404,-2.8807 2.5281,-9.5413 2.5281,-11.798c0,-2.5328 0.89032,-3.3708 -2.2472,-3.3708c-0.26639,0 -1.5158,-0.16963 -1.6854,0c-8.1281,8.1281 -0.55283,9.8135 -3.9326,16.573c-1.777,3.554 -8.9888,11.855 -8.9888,14.888c0,0.12715 -0.55156,2.5076 -0.8427,3.0899c-1.1523,2.3047 0.2809,9.3305 0.2809,11.236c0,0.82627 0.13428,1.832 -0.2809,2.2472c-0.54417,0.54417 -1.6536,5.8353 -2.2472,7.0225c-0.451,0.90199 -1.1236,3.8174 -1.1236,2.809c0,-2.7485 2.4917,-15.767 -0.2809,-18.539c-1.0728,-1.0728 -1.6822,-3.6484 -2.5281,-4.4944c-2.7868,-2.7868 -5.8091,-5.7192 -7.8652,-9.8315c-1.2131,-2.4262 1.1236,-5.091 1.1236,-7.0225c0,-3.3318 5.9742,-15.655 4.7753,-16.854c-0.69285,-0.69285 -2.0049,-2.0435 -2.5281,-3.0899c-1.0286,-2.0573 0.58266,-6.4711 -2.809,-4.7753c-1.1643,0.58214 -2.6232,2.0615 -3.3708,2.809c-1.264,1.264 0.98314,6.0393 -0.2809,7.3034c-2.1508,2.1508 -1.9903,8.4509 -4.2135,10.674c-1.5485,1.5485 0.63007,5.8306 0,6.4607c-0.46774,0.46775 -0.53247,0 -1.4045,0c-1.2789,0 -4.0228,-3.2703 -4.7753,-4.7753c-1.0286,-2.0572 -2.6243,-3.7479 -3.9326,-5.0562c-0.18728,-0.18728 0.11052,-1.1835 0,-1.4045c-2.8214,-5.6428 5.6485,-10.173 7.0225,-12.921c0.34606,-0.69212 3.2317,-6.3188 1.9663,-7.5843c-1.0311,-1.0311 -5.3491,-1.3925 -5.0562,-1.6854c0.25856,-0.25856 0.19444,-6.5471 -1.4045,-8.1461c-0.65543,-0.65543 -1.8726,-0.74906 -2.5281,-1.4045c-1.0849,-1.0849 -4.7369,0.76586 -5.0562,1.4045c-0.97534,1.9507 3.0242,3.2393 3.6517,4.4944c2.2887,4.5774 -2.0934,18.947 -3.6517,20.506c-1.7356,1.7356 1.0774,6.7416 0.5618,6.7416c-2.4404,0 -6.7377,-14.322 -8.7079,-16.292c-1.8172,-1.8172 2.6664,-6.3224 0.84269,-8.1461c-0.31854,-0.31854 -1.937,-4.8046 -1.1236,-5.618c2.8647,-2.8647 6.4844,-3.1374 8.427,-7.0225c1.2159,-2.4318 1.7088,-10.124 -2.809,-7.8652c-1.1802,0.59008 -0.39172,2.0771 -1.1236,2.809c-2.3889,2.3889 -3.9664,5.3709 -6.4607,7.8652c-2.9514,2.9514 -3.618,-4.4607 -4.2135,-5.0562c-0.38606,-0.38605 -1.4045,-0.29672 -1.4045,-0.84269c0,-0.67722 -1.8496,2.9732 -1.9663,3.0899c-1.2679,1.2679 0.66723,5.5479 1.1236,6.4607c0.62344,1.2469 4.6484,13.329 2.809,15.169c-3.7536,3.7536 -9.2697,-6.4449 -9.2697,1.4045c0,1.7514 0.74774,4.1185 1.6854,5.0562c2.0603,2.0603 8.7128,0.84761 9.2697,1.4045c0.72264,0.72264 4.0742,8.2876 5.618,9.8315c1.6406,1.6406 12.64,11.678 12.64,14.045c0,0.39857 -3.8648,-1.9324 -3.9326,-1.9663c-2.9169,-1.4584 -7.4246,-1.4045 -11.517,-1.4045c-3.911,0 -24.001,2.8873 -24.157,2.809c-3.009,-1.5045 -2.5913,-3.7149 -4.4944,-5.618c-0.21064,-0.21064 -4.3015,-0.75465 -4.7753,-0.2809c-2.554,2.554 4.6267,6.8901 3.9326,7.5843c-0.925,0.925 -2.2736,1.15 -3.3708,2.2472c-3.4623,3.4622 -4.6173,11.359 -7.5843,14.326c-0.76154,0.76154 1.2343,4.0433 1.4045,4.2135c4.3022,4.3022 9.6427,-9.0809 12.079,-11.517c2.9767,-2.9767 12.983,-3.9942 14.045,-5.0562c2.2226,-2.2226 4.9984,-4.1557 7.3034,-6.4607c0.66402,-0.66403 2.5033,-0.8179 3.3708,-1.6854c0.4655,-0.46549 2.0522,0 2.809,0c1.0342,0 2.0557,-0.2809 3.0899,-0.2809l1.6854,0c-0.11166,0 1.3211,1.3211 1.9663,1.9663c1.475,1.475 2.2553,3.6598 3.6517,5.0562c0.74619,0.74618 2.2983,1.1747 2.809,1.6854c0.2809,0.2809 1.4045,-0.2809 1.6854,0c3.2854,3.2854 8.5319,-2.6804 12.36,-1.4045c2.5086,0.83621 1.4408,3.1262 2.809,4.4944c2.1655,2.1655 3.3708,0.0944 3.3708,5.3371c0,1.3635 -1.1003,1.7552 -0.8427,2.5281c0.23263,0.69789 1.8685,2.1494 2.2472,2.5281c1.8977,1.8977 -1.8476,13.645 -2.5281,14.326c-1.2273,1.2273 -2.1045,3.2281 -3.3708,4.4944c-1.4708,1.4708 -4.9242,1.9831 -5.8989,3.9326c-0.66907,1.3381 1.542,3.6458 1.9663,4.4944c0.87088,1.7418 0,6.4578 0,8.427c0,4.8956 -3.9952,27.122 -2.2472,30.618c0.55884,1.1177 4.4944,18.066 4.4944,19.663c0,7.035 -1.3434,20.225 -8.427,20.225l-0.00068,-0.00149z" fill="#a05a2c" id="path4039"/>
    <path d="m142.20885,76.02599c-2.324,5.603 -6.909,8.948 -10.57,13.212c-3.565,-0.345 -4.922,-5.86 -3.964,-8.588c2.729,0.352 1.259,4.907 3.304,5.945c4.299,-2.965 6.296,-8.233 11.23,-10.569z" fill-rule="evenodd" id="path236"/>
    <path d="m144.18885,81.97499c-1.887,4.277 -4.072,8.258 -9.249,9.248c0.81,-3.49 4.397,-5.061 6.607,-7.267c0.856,-0.855 0.475,-3.043 2.642,-1.981z" fill-rule="evenodd" id="path238"/>
    <path d="m123.70885,84.61499l1.983,0c-1.075,3.288 2.476,3.934 0.661,5.945c-3.842,0.239 -3.307,-3.279 -2.644,-5.945z" fill-rule="evenodd" id="path240"/>
    <path d="m152.11885,99.14499c-2.657,-0.728 -0.7,-4.603 -0.66,-6.605c-0.455,-2.629 -3.858,-2.309 -3.964,-5.285c5.903,-1.693 6.797,6.409 4.624,11.89z" fill-rule="evenodd" id="path242"/>
    <path d="m105.21885,89.23499c0.389,2.813 -0.477,4.37 -0.663,6.606c2.813,-0.271 2.799,-3.367 5.947,-3.303c0.76,0.78 0.746,2.335 0.661,3.963c0.5,1.298 2.108,-1.792 4.625,-0.66c1.841,2.872 -1.977,6.836 0.66,8.587c1.728,0.187 2.841,-0.241 2.642,-1.981c3.012,1.391 5.185,3.623 9.249,3.963c0.535,-0.126 0.658,-0.663 1.321,-0.661c0.463,-4.167 -3.194,-7.124 -1.321,-10.57c2.139,3.366 3.436,7.575 3.304,13.212c-3.904,1.599 -8.094,-0.767 -11.232,-1.982c-0.405,6.596 4.71,5.547 9.909,5.285c2.618,3.989 4.036,9.177 8.589,11.231c-4.198,3.234 -7.562,-4.993 -9.249,-8.588c-3.412,-0.112 -7.456,0.409 -9.91,-0.661c-2.917,1.929 -3.988,5.7 -5.945,8.589c-3.714,-0.01 -6.649,-0.54 -8.586,-0.661c0.125,-5.14 3.166,-1.985 6.605,-1.982c3.755,-1.841 6.56,-7.848 5.945,-11.89c-1.087,-1.116 -3.585,-0.82 -4.625,-1.982c-0.463,-2.886 1.123,-3.721 0.66,-6.606c-1.891,-1.632 -2.817,3.32 -5.945,2.643c-0.332,-2.753 1.931,-2.914 1.32,-5.945c-3.401,0.121 -2.727,4.317 -7.266,3.303c-0.523,-3.251 2.631,-5.311 0.66,-7.927c-3.888,1.396 -6.113,4.458 -10.57,5.285c-0.672,-2.875 1.367,-3.037 1.981,-4.624c4.237,0.888 5.623,-3.144 11.234,-2.644z" fill-rule="evenodd" id="path244"/>
    <path d="m140.88885,89.23499c8.194,-1.287 9.909,13.553 4.625,15.854c1.738,-3.89 0.643,-6.101 0,-10.57c-0.334,-2.967 -5.112,-1.494 -4.625,-5.284z" fill-rule="evenodd" id="path246"/>
    <path d="m134.27885,91.88499c3.569,1.279 4.062,9.638 1.983,12.551c2.502,4.986 4.924,10.049 6.605,15.855c5.471,2.458 11.621,4.233 11.891,11.89c-3.116,-0.846 -3.174,-4.752 -5.285,-6.605c-4.658,-0.405 -6.695,-3.435 -9.909,-5.285c-0.684,-5.92 -2.693,-10.519 -5.285,-14.533c2.167,-4.809 0.308,-8.32 0,-13.873z" fill-rule="evenodd" id="path248"/>
    <path d="m155.41885,98.48499l1.983,0c1.744,6.076 -4.539,9.459 -6.608,14.534c-0.636,1.563 0.433,4.547 -1.981,5.285c-1.646,-10.366 7.631,-12.137 6.606,-19.819z" fill-rule="evenodd" id="path250"/>
    <path d="m220.15885,109.05499c0.111,2.313 -2.324,2.08 -3.304,3.303c-1.203,4.081 -1.536,9.034 -1.981,13.872c-7.072,1.997 -12.754,8.774 -19.818,8.589c-2.869,0.435 -1.263,5.343 -4.625,5.285c1.176,-6.141 7.384,-12.838 6.606,-23.122c5.133,2.532 -2.49,10.353 0.66,15.193c5.733,-1.751 9.56,-5.414 15.194,-7.266c1.476,-6.23 -0.244,-15.658 7.268,-15.854z" fill-rule="evenodd" id="path252"/>
    <path d="m222.13885,111.70499l1.982,0c-0.806,3.159 -2.769,5.158 -2.644,9.249c3.232,0.15 4.152,-2.014 7.267,-1.982c-1.413,3.21 -4.851,4.397 -8.587,5.285c-2.836,-3.671 1.543,-8.143 1.982,-12.552z" fill-rule="evenodd" id="path254"/>
    <path d="m162.68885,112.36499c0.768,-0.107 1.175,0.146 1.321,0.661c0.509,1.704 -0.985,2.838 -1.981,4.624c-1.963,3.517 -3.064,8.995 -3.304,15.856c-3.965,-7.219 0.69,-16.801 3.964,-21.141z" fill-rule="evenodd" id="path256"/>
    <path d="m258.47885,113.68499c2.544,0.539 3.439,2.728 5.285,3.963c-2.01,1.765 -7.764,-1.157 -5.285,-3.963z" fill="#fff" fill-rule="evenodd" id="path258"/>
    <path d="m241.95885,121.60499c-2.527,4.298 -10.347,3.307 -13.213,7.267c7.021,2.229 8.419,10.079 12.553,15.194c3.22,0.304 7.736,-0.692 9.909,0.66c-1.951,2.787 -9.572,2.295 -13.213,1.321c-0.734,-8.954 -7.631,-11.747 -11.23,-17.836c2.781,-4.109 10.252,-6.837 15.194,-6.606z" fill-rule="evenodd" id="path260"/>
    <path d="m144.84885,130.19499c2.719,1.697 7.968,5.615 4.624,9.249c-1.462,-2.863 -5.4,-6.297 -4.624,-9.249z" fill-rule="evenodd" id="path262"/>
    <path d="m104.55085,130.85499c2.899,0.018 4.072,4.357 3.304,5.945c-2.596,-0.487 -3.146,-3.018 -3.304,-5.945z" fill-rule="evenodd" id="path264"/>
    <path d="m106.53885,136.80499c-0.084,1.185 0.808,1.395 0.66,2.644c-0.766,0.555 -1.771,0.871 -3.304,0.66c-3.386,2.338 -3.679,7.771 -7.926,9.249c-0.441,2.86 -1.173,5.433 -3.964,5.945c1.159,-5.503 6.877,-12.021 10.57,-17.178c-1.117,-1.819 -7.041,-4.122 -3.304,-6.604c2.276,1.025 3.083,3.523 3.964,5.945c0.769,-0.554 1.772,-0.871 3.304,-0.661z" fill-rule="evenodd" id="path266"/>
    <path d="m233.36885,146.71499c-5.035,-0.036 -6.045,-9.806 -11.891,-11.232c-3.752,-0.125 -5.446,3.472 -8.588,1.983c-3.659,2.95 -9.995,6.731 -15.194,5.945c-0.195,-2.448 3.306,-2.768 4.624,-3.304c5.477,-2.229 10.688,-4.579 15.194,-7.929c10.249,-0.117 11.365,8.899 15.855,14.537z" fill-rule="evenodd" id="path268"/>
    <path d="m117.75885,142.74499c-0.459,4.385 -6.781,2.908 -9.909,4.624c-6.345,2.242 -3.841,13.335 -11.891,13.874c5.489,-7.944 7.498,-19.368 21.8,-18.498z" fill-rule="evenodd" id="path270"/>
    <path d="m199.67885,147.37499l0,3.304c3.177,-0.566 3.428,-4.06 7.927,-3.304l0,3.304c3.619,0.535 3.22,-2.946 6.607,-2.642c1.74,-0.199 2.167,0.914 1.981,2.642c3.872,-0.865 13.504,-4.313 12.551,1.321c-4.84,-2.189 -8.834,-0.319 -12.551,1.982c-1.823,-0.159 -1.509,-2.458 -2.644,-3.304c-3.34,0.184 -4.465,2.582 -6.605,3.964c-2.055,-0.147 -1.115,-3.287 -1.321,-5.284c-3.445,0.959 -3.985,4.821 -7.928,5.284c-0.555,-0.768 -0.87,-1.771 -0.66,-3.304c-2.209,2.636 -3.54,6.149 -5.285,9.249c-4.024,-0.06 -3.585,4.344 -4.625,7.269c-3.072,-2.387 1.098,-8.451 1.323,-11.893c1.347,-1.327 1.295,0.293 2.642,0.66c3.681,-2.266 2.606,-9.284 8.588,-9.248z" fill-rule="evenodd" id="path272"/>
    <path fill="#008000" d="m184.85885,164.39499c-0.74323,2.3485 -0.93711,4.8689 -0.56179,7.3034c0.40229,2.6095 1.4369,5.0714 2.2472,7.5843c0.26013,0.80673 0.49844,1.6229 0.83792,2.3996c0.33947,0.77669 0.7869,1.5194 1.4093,2.0948c0.5585,0.5164 1.2443,0.88416 1.9663,1.1236c1.9232,0.6378 4.0514,0.36569 5.9569,-0.32342c1.9055,-0.6891 3.6388,-1.7713 5.3893,-2.7918s3.5623,-1.9978 5.5387,-2.4443c0.98822,-0.22326 2.0121,-0.30996 3.0188,-0.1957c1.0066,0.11427 1.9961,0.43337 2.8492,0.97995c0.9275,0.5943 1.6837,1.4582 2.1296,2.4655c0.44591,1.0073 0.57658,2.155 0.34673,3.2323c-0.22986,1.0773 -0.82262,2.0774 -1.6716,2.7793c-0.84896,0.70193 -1.9506,1.0973 -3.0519,1.0735c-0.66609,-0.0144 -1.3195,-0.176 -1.9813,-0.25278c-0.6618,-0.0768 -1.3636,-0.0611 -1.9513,0.25278c-0.52556,0.28069 -0.91267,0.78145 -1.1325,1.3352c-0.21983,0.55378 -0.2835,1.159 -0.27199,1.7547c0.0236,1.2207 0.35712,2.429 0.92213,3.5113c0.56501,1.0824 1.3582,2.0398 2.2867,2.8327c1.8569,1.5858 4.2194,2.4933 6.6227,2.9256c0.91182,0.16405 1.8349,0.26388 2.7424,0.45023c0.90753,0.18635 1.8085,0.46409 2.5947,0.95427c1.0747,0.67006 1.8734,1.6953 2.6147,2.7221c0.74126,1.0268 1.4625,2.0924 2.4415,2.8958c1.4002,1.1492 3.2448,1.6725 5.0562,1.6854c2.6689,0.019 5.2281,-0.99336 7.8652,-1.4045c2.506,-0.3907 5.0691,-0.23573 7.5843,-0.56179c1.8643,-0.24169 3.7099,-0.75517 5.3485,-1.6768c1.6385,-0.9216 3.064,-2.2681 3.9212,-3.9412c0.62601,-1.2218 0.93595,-2.578 1.442,-3.8543c0.253,-0.63811 0.55747,-1.2601 0.96359,-1.8136c0.40611,-0.55341 0.91807,-1.0378 1.527,-1.3547c0.85466,-0.44466 1.8459,-0.53705 2.809,-0.5618c3.8335,-0.0985 7.62,0.74145 11.425,1.2196c3.8048,0.47816 7.8023,0.56956 11.328,-0.93871c2.5175,-1.077 4.7385,-3.0361 5.707,-5.5973c0.48424,-1.2806 0.64451,-2.6904 0.40037,-4.0376c-0.24415,-1.3471 -0.90014,-2.6257 -1.8939,-3.5674c-1.3189,-1.2499 -3.116,-1.8378 -4.8592,-2.3506c-1.7432,-0.51277 -3.5496,-1.0135 -4.9723,-2.1438c-1.1981,-0.95182 -2.0586,-2.3418 -2.2947,-3.8536c-0.23609,-1.5118 0.17664,-3.1296 1.1712,-4.2925c0.56664,-0.66257 1.305,-1.1695 2.1092,-1.5062c0.80419,-0.33668 1.6732,-0.50625 2.5441,-0.54641c1.7418,-0.0803 3.4666,0.34873 5.1294,0.87339c1.6628,0.52465 3.3011,1.15 5.0127,1.4824c1.7117,0.33243 3.534,0.3557 5.1484,-0.30315c1.1494,-0.46906 2.1371,-1.2585 3.0625,-2.086c0.92538,-0.82747 1.8116,-1.7078 2.8364,-2.4084c1.5264,-1.0435 3.3242,-1.663 4.7753,-2.809c1.5487,-1.223 2.5971,-2.9617 3.5078,-4.7123c0.91072,-1.7506 1.7294,-3.5708 2.9529,-5.1191c0.78875,-0.99816 1.7304,-1.863 2.6042,-2.7876c0.87381,-0.92462 1.6942,-1.9319 2.1711,-3.1113c0.45072,-1.1145 0.57507,-2.3424 0.49094,-3.5417c-0.0841,-1.1993 -0.37051,-2.3757 -0.71714,-3.5269c-0.69325,-2.3023 -1.64,-4.574 -1.7401,-6.9763c-0.0273,-0.65493 0.009,-1.3108 0,-1.9663c-0.0605,-4.2713 -2.0585,-8.2886 -4.4944,-11.798c-3.1249,-4.5017 -7.2326,-8.5672 -12.413,-10.354c-2.5903,-0.89322 -5.4107,-1.1831 -8.0989,-0.65309c-2.6883,0.52999 -5.2321,1.9044 -7.0159,3.9842c-1.3932,1.6245 -2.3199,3.6493 -3.9326,5.0562c-0.76438,0.66681 -1.6552,1.1687 -2.5281,1.6854c-2.3865,1.4125 -4.6916,2.9717 -7.1755,4.2049s-5.1901,2.1408 -7.9632,2.1355c-1.3866,-0.003 -2.7784,-0.23691 -4.0665,-0.7502s-2.4703,-1.31 -3.3815,-2.3551c-0.91116,-1.0452 -1.5443,-2.3418 -1.7448,-3.7138c-0.20053,-1.372 0.0422,-2.8151 0.73603,-4.0157c0.52266,-0.90438 1.2874,-1.6573 2.1609,-2.2301c0.87348,-0.57281 1.8541,-0.9702 2.8628,-1.2416c2.0173,-0.54284 4.1289,-0.58718 6.2123,-0.74177c3.5533,-0.26366 7.1355,-0.87435 10.348,-2.4154c3.2126,-1.541 6.0437,-4.1006 7.3486,-7.4161c0.60011,-1.5248 0.86455,-3.1573 1.1236,-4.7753c0.14337,-0.89549 0.28667,-1.7956 0.28618,-2.7025c-0.0005,-0.90689 -0.15116,-1.8287 -0.56708,-2.6346c-0.34987,-0.67791 -0.87952,-1.2555 -1.4966,-1.704c-0.61711,-0.44849 -1.3203,-0.77085 -2.0496,-0.99464c-1.4586,-0.44758 -3.004,-0.50368 -4.5284,-0.56742c-1.5244,-0.0637 -3.0717,-0.14268 -4.5168,-0.63205c-0.72256,-0.24469 -1.4145,-0.59257 -2.0116,-1.0673c-0.59718,-0.47471 -1.0979,-1.0793 -1.4082,-1.7762c-0.51153,-1.1489 -0.47744,-2.4843 -0.13605,-3.6947s0.96947,-2.3183 1.6267,-3.3905s1.3528,-2.1289 1.8495,-3.2842c0.49675,-1.1554 0.78858,-2.4332 0.59245,-3.6754c-0.23762,-1.5051 -1.1558,-2.805 -2.0926,-4.0067c-0.93673,-1.2017 -1.9401,-2.4064 -2.4018,-3.8584c-0.41293,-1.2986 -0.35877,-2.6911 -0.44162,-4.0512c-0.0414,-0.68007 -0.11881,-1.3617 -0.30576,-2.0169c-0.18695,-0.65518 -0.48765,-1.2858 -0.93801,-1.7971c-0.60849,-0.69077 -1.4717,-1.1344 -2.3758,-1.3074c-0.90415,-0.17303 -1.8467,-0.08595 -2.7308,0.17056c-1.7682,0.51303 -3.2693,1.6658 -4.7225,2.7963s-2.9505,2.2868 -4.716,2.809c-0.88275,0.26111 -1.8244,0.35432 -2.7299,0.18835c-0.90547,-0.16597 -1.7723,-0.60153 -2.388,-1.2859c-0.65006,-0.72265 -0.98679,-1.669 -1.2592,-2.602c-0.27236,-0.93306 -0.50151,-1.8936 -0.98804,-2.7351c-0.53047,-0.91746 -1.3567,-1.655 -2.314,-2.1096c-0.95731,-0.45462 -2.0408,-0.629 -3.0962,-0.53223s-2.0811,0.46099 -2.9802,1.022c-0.89912,0.56099 -1.6723,1.3161 -2.2838,2.1817c-1.1699,1.6562 -1.7253,3.6567 -2.2568,5.6135c-0.53146,1.9568 -1.0794,3.9581 -2.2376,5.6225c-1.5837,2.2758 -4.2582,3.7184 -7.0225,3.9326c-3.04,0.2355 -6.0043,-0.9135 -8.7881,-2.1574c-2.7839,-1.2439 -5.5907,-2.6252 -8.6276,-2.8988c-2.2697,-0.20443 -4.5464,0.22467 -6.7678,0.73346s-4.4402,1.1019 -6.7154,1.2328c-2.9433,0.16938 -5.8683,-0.43991 -8.8038,-0.71353c-2.9354,-0.27362 -6.0448,-0.17417 -8.612,1.2753c-1.7226,0.97262 -3.0765,2.4872 -4.2337,4.0916c-1.1572,1.6045 -2.1507,3.3243 -3.3505,4.8971c-1.8531,2.4291 -4.1665,4.4666 -6.1543,6.7868s-3.6932,5.0571 -3.9581,8.1009c-0.13973,1.6054 0.12971,3.2228 0.5618,4.7753c1.397,5.0193 4.5922,9.564 8.9888,12.36c1.1673,0.74221 2.4083,1.3601 3.6517,1.9663c3.2578,1.5882 6.5843,3.1178 10.128,3.8803c3.5433,0.76247 7.3594,0.70927 10.659,-0.79042c2.5259,-1.1481 4.6495,-3.0876 7.2402,-4.081c1.2953,-0.49669 2.7174,-0.74342 4.0798,-0.48148c0.68116,0.13096 1.3406,0.38927 1.9133,0.78063c0.57269,0.39136 1.0568,0.91752 1.3735,1.5346c0.33997,0.66248 0.48123,1.415 0.48458,2.1596c0.003,0.74461 -0.12684,1.4842 -0.30594,2.207c-0.3582,1.4455 -0.91573,2.8558 -1.0213,4.3412c-0.16605,2.3357 0.80932,4.619 2.1151,6.5627s2.9458,3.6389 4.3456,5.516c1.5065,2.0202 2.7259,4.239 4.1708,6.3037s3.1641,4.0127 5.3798,5.2132c0.72547,0.39306 1.4941,0.70041 2.2292,1.0752c0.73506,0.3748 1.4471,0.82657 1.9843,1.4529c0.59531,0.69412 0.95415,1.6205 0.8427,2.5281c-0.0836,0.68104 -0.42672,1.3177 -0.90928,1.8055c-0.48255,0.4878 -1.0986,0.83197 -1.7505,1.046c-1.3038,0.42805 -2.7136,0.34453 -4.0818,0.23844c-3.1807,-0.24662 -6.3605,-0.59029 -9.5506,-0.5618c-0.56184,0.005 -1.1239,0.0216 -1.6854,0c-1.5273,-0.0587 -3.0317,-0.3992 -4.4944,-0.8427c-1.0226,-0.31005 -2.035,-0.67232 -3.0899,-0.8427c-1.443,-0.23307 -2.9368,-0.0968 -4.3345,0.33084c-1.3978,0.42766 -2.7007,1.1424 -3.8547,2.0396c-2.308,1.7944 -3.9926,4.2814 -5.2939,6.8992c-1.2821,2.5792 -2.2289,5.3248 -2.809,8.1461" id="path3267"/>
    <path d="m179.85885,155.96499l1.981,0c-1.094,5.953 -1.802,12.291 -5.285,15.854c-0.321,-4.074 3.316,-9.889 3.304,-15.854z" fill-rule="evenodd" id="path274"/>
    <path d="m198.42885,185.12499c1.3394,-4.2845 3.566,-4.5464 5.8824,-6.8628c1.1307,-1.1307 3.2114,4.1918 3.4314,4.4118c0.74623,0.74623 3.8445,-5.4178 6.8627,-4.4118c4.1417,1.3806 7.8136,4.9315 11.765,0.98039c1.0621,-1.0621 3.8399,-0.40849 4.902,-1.4706c2.8975,-2.8976 10.616,4.4961 14.706,2.451c3.1759,-1.5879 9.2698,-3.3875 11.765,-5.8824c1.8437,-1.8437 7.5709,-0.21795 9.3137,-1.9608c2.497,-2.497 3.8928,2.9556 6.8628,1.4706c2.6205,-1.3102 3.1064,-3.1064 4.4118,-4.4118c3.9274,-3.9274 12.165,1.07 16.667,-3.4314c0.9757,-0.9757 3.3643,4.9691 5.3922,2.9412c1.9988,-1.9988 -0.71948,-4.1825 0.98039,-5.8824c3.2951,-3.2951 8.7725,-0.70977 10.294,-1.4706c1.2359,-0.61795 1.8425,-6.7444 3.4314,-8.3333c1.0287,-1.0287 6.254,-4.6488 4.902,-7.3529c-4.0127,-8.0254 -7.4122,1.5299 -10.294,4.4118c-0.69906,0.69906 -11.144,0.85012 -16.176,5.8824c-4.2484,4.2484 -18.791,-1.7974 -23.039,2.451c-2.4083,2.4083 -6.2505,4.2898 -8.8235,6.8627c-3.1625,3.1625 -5.3197,-5.6735 -10.784,-2.9412c-2.6774,1.3387 -4.1368,3.1564 -5.8824,4.902c-1.8308,1.8308 -8.8512,-1.2117 -11.275,0c-4.3599,2.18 -6.302,3.851 -8.8235,6.3726c-0.79011,0.7901 -5.1247,0.0891 -8.3333,-0.9804c-2.1575,-0.71916 -5.0224,2.3305 -6.3726,0.9804c-0.7008,-0.70081 -1.7959,-1.4706 -2.9412,-1.4706c-4.9747,0 -18.359,-6.6409 -19.608,-5.3922c-3.8118,3.8118 0.41517,16.176 0.98039,16.176c1.6093,0 3.5701,4.4118 1.9608,4.4118l2.451,0c3.3402,0 -1.2761,-5.7851 5.3922,-2.451l-0.00168,0.00051z" fill="#236523" id="path4045"/>
    <path d="m278.81885,177.27499c-0.50236,5.2312 11.618,2.3047 13.725,4.4118c1.6794,1.6794 -2.1633,8.0457 -3.4314,9.3137c-0.8987,0.89869 0.40849,4.0033 -0.4902,4.902c-2.3712,2.3712 -5.8871,-3.9168 -8.3333,-1.4706c-1.0119,1.0119 -0.22838,2.075 -1.9608,2.9412c-3.3688,1.6844 -2.5772,-2.269 -3.9216,-2.9412c-2.1366,-1.0683 -5.859,0.51354 -6.8627,-0.49019c-0.42753,-0.42753 -3.818,-2.5546 -4.4118,-1.9608c-0.36925,0.36926 0.277,6.3726 0,6.3726c-9.4937,0 -2.6619,1.6815 -7.3529,6.3726c-2.4763,2.4763 -5.1153,-2.5894 -8.3333,-0.98039c-2.1346,1.0673 1.4268,2.985 -0.4902,4.902c-1.3307,1.3307 -5.5834,-1.1716 -5.8824,-1.4706c-0.54759,-0.54759 -9.1948,7.1006 -13.725,-1.9608c-0.3377,-0.67541 -5.0775,-3.7461 -5.8824,-2.9412c-0.2039,0.20389 -1.4547,3.4473 -2.451,2.451c-4.1527,-4.1527 -0.28753,-3.4314 -5.3922,-3.4314c-0.82936,0 -6.4362,-7.7795 -5.8824,-8.3333c1.2949,-1.2949 5.2198,-1.7884 8.3333,-4.902c0.23444,-0.23443 11.818,-1.689 12.255,-1.4706c0.0761,0.038 6.1671,8.4757 10.784,10.784c4.7626,2.3813 6.3526,-3.3714 6.3725,-3.4314c0.31981,-0.95942 5.0589,1.8039 6.8628,0c1.7631,-1.7631 0.65266,-5.0644 1.9608,-6.3726c0.59575,-0.59574 1.6623,-0.1917 2.9412,-1.4706c2.9708,-2.9708 11.236,0.98039 14.216,0.98039c2.6636,0 5.0579,0.98039 7.3529,0.98039l1.9608,0c-1.8793,0 0.86478,-0.72143 0,-2.451c-1.2045,-2.4089 -2.4275,-1.9373 -3.9216,-3.4314c-0.29206,-0.29206 1.9407,-4.8517 1.9608,-4.902l0.0001,0.0004z" fill="#236523" id="path4065"/>
    <path d="m280.27885,193.61499c3.28,-0.639 3.525,1.76 5.947,1.981c-0.652,-6.063 3.904,-8.772 6.606,-13.214c-2.406,-1.486 -6.49,2.981 -9.249,1.321l0,-3.962c-3.158,-0.738 -2.787,2.057 -5.945,1.32c-1.44,-1.381 0.329,-1.886 0,-3.964c-0.457,-1.65 -1.762,1.227 -3.304,0.66c-3.801,-5.738 3.086,-8.802 6.605,-11.23c4.105,0.832 3.996,2.488 7.268,0c0.662,0.878 0.625,2.458 1.981,2.644c1.482,-0.722 1.161,-3.244 2.644,-3.964c4.004,-0.92 3.026,3.138 6.605,2.644c1.839,-1.245 1.506,-4.661 2.644,-6.607c2.948,0.945 5.923,-3.24 8.586,-0.661c3.212,-2.514 3.735,-7.717 5.945,-11.229c2.536,-0.327 4.591,-1.138 5.285,-3.304c0.488,-2.251 -2.434,-1.09 -2.642,-2.642c-0.109,-2.312 0.176,-4.229 1.32,-5.287c-0.467,-1.733 -3.1,-1.303 -3.964,-2.642c0.748,-7.645 -0.213,-9.731 -0.66,-17.175c-4.379,0.023 -4.31,4.497 -9.249,3.964c-1.504,-3.479 0.285,-8.812 5.287,-7.928c0.115,2.98 -4.096,1.631 -3.304,5.285c3.715,-1.029 5.482,-7.124 11.229,-3.963c-2.573,5.034 2.632,6.782 -0.66,11.231c0.447,1.531 1.688,2.273 2.642,3.302c0.313,2.072 -1.777,1.745 -1.981,3.304c1.172,0.812 3.481,0.48 3.965,1.98c0.249,2.893 -1.89,3.397 -1.983,5.945c5.423,0.974 1.466,5.004 1.322,9.249c-1.552,0.212 -2.479,1.044 -4.624,0.66c-1.76,4.407 -3.969,8.363 -5.285,13.214c-2.494,0.291 -3.103,-1.303 -4.624,-1.983c-2.406,0.457 -3.047,2.68 -5.945,2.644c0.217,2.42 -0.734,3.669 -1.323,5.285c-3.327,0.467 -4.538,-1.186 -6.605,-1.983c-3.16,2.858 -5.418,3.282 -9.909,3.966c-0.004,-1.979 -1.188,-2.777 -2.642,-3.304c-2.877,2.494 -1.592,5.738 -2.644,9.249c3.212,0.568 3.394,-1.891 6.607,-1.322l0,4.624c3.041,-0.568 7.213,-3.727 9.908,-0.66c-3.099,5.49 -7.007,10.169 -7.927,17.836c-4.216,0.251 -4.507,-3.42 -7.929,-3.962c-3.403,0.559 -2.56,5.366 -5.944,5.944c-1.231,-2.07 -1.681,-4.928 -3.303,-6.607c-1.785,0.2 -1.185,2.781 -2.643,3.304c-2.861,0.22 -1.626,-3.658 -4.625,-3.304c-1.169,1.915 -1.107,5.06 -1.98,7.269c-3.296,0.448 -3.131,4.356 -5.945,5.284c-2.614,-0.031 -3.831,-1.454 -5.945,-1.982c-1.886,1.198 -2.131,4.038 -2.644,6.607c-3.185,0.102 -3.324,-2.843 -7.267,-1.983c-0.894,0.65 -1.32,1.764 -1.982,2.644c-0.335,3.198 3.028,2.699 1.982,6.605c-2.635,-1.328 -5.28,-2.647 -5.284,-6.605c-3.596,-0.732 -3.483,2.244 -6.607,1.981c1.055,-6.121 -4.723,-5.407 -5.285,-9.908c-2.58,0.282 -1.813,3.911 -5.285,3.303c0.252,-2.232 -1.145,-2.819 -1.98,-3.965c-2.693,-0.49 -2.274,2.131 -5.285,1.321c0.379,-3.681 -0.302,-6.305 -1.983,-7.927c-2.019,-0.479 -1.943,1.14 -3.962,0.66c-0.637,-2.809 3.394,-6.154 3.962,-9.909c2.398,-0.637 0.557,2.969 2.644,2.644c4.072,-0.333 2.215,-6.596 2.642,-10.569c-3.384,-0.082 -2.801,3.804 -5.285,4.624c-2.809,-0.054 -1.368,-4.357 -3.962,-4.624c-3.216,1.849 -2.382,7.748 -6.607,8.586c-0.916,-0.404 -0.098,-2.541 -1.321,-2.642c-3.423,-0.562 -2.535,3.19 -4.624,3.963c-2.19,-0.89 -1.153,-5.012 -3.302,-5.945c-2.861,-0.583 -4.206,4.233 -5.947,6.607c-1.131,1.544 -2.44,2.406 -2.642,5.285c-0.142,2.024 1.274,3.895 1.32,5.945c0.242,10.885 -0.183,24.519 0,36.333c0.068,4.354 0.786,9.088 1.983,11.891c1.85,4.342 7.98,5.438 6.605,10.57c-15.974,-6.395 -10.208,-37.501 -11.229,-56.813c-0.136,-2.543 -1.593,-5.609 -1.323,-7.926c0.698,-5.983 7.137,-9.551 7.929,-14.534c0.846,-3.009 -2.316,-6.152 0.66,-7.266c2.634,-0.432 1.894,2.51 1.983,4.624c0.884,2.857 3.348,4.138 3.962,7.266c2.314,0.112 2.081,-2.324 3.304,-3.304c1.688,0.074 2.312,1.212 3.304,1.983c2.54,-1.644 2.328,-6.039 5.945,-6.607c2.911,-0.487 2.705,2.139 4.624,2.644c1.74,-0.461 1.396,-3.007 3.303,-3.304c3.243,0.63 1.785,3.401 5.944,1.98c-1.412,6.517 -2.026,13.83 -9.909,13.874c0.088,3.878 4.12,3.809 3.965,7.928c3.513,-0.429 5.338,0.826 6.605,2.642c1.718,-0.263 1.992,-1.971 3.964,-1.98c3.273,0.469 2.691,4.794 6.607,4.624c-0.088,1.628 -0.102,3.183 0.66,3.964c1.903,0.078 4.323,-0.362 5.285,0.659c1.151,-1.71 2.653,-3.068 4.624,-3.963c2.075,0.348 3.686,1.159 5.285,1.983c1.771,-0.872 1.098,-4.189 1.981,-5.947c2.458,-1.073 4.896,1.054 7.926,1.322c2.185,-0.682 2.229,-3.499 2.644,-5.946c1.102,0 2.203,0.002 3.304,0c-0.13,-2.552 -0.023,-4.868 0.661,-6.606c3.719,0.026 5.613,3.975 7.926,0c2.787,0.738 4.252,2.798 5.285,5.285c2.472,-0.395 3.415,-2.311 5.284,-3.304z" fill-rule="evenodd" id="path276"/>
    <path d="m225.87885,148.35499c1.5183,-1.4854 11.21,-4.3471 11.765,-4.902c2.5467,-2.5467 3.254,-7.2643 6.3726,-8.8235c5.9137,-2.9569 9.2207,2.0538 15.196,-3.9216c2.6434,-2.6434 11.144,0.62034 13.725,-1.9608c0.24748,-0.24748 3.9216,-3.0434 3.9216,-2.9412c0,2.2876 -7.6168,-4.6757 -7.8431,-4.902c-2.0602,-2.0602 -11.391,-0.11641 -14.216,-2.9412c-1.5119,-1.5119 1.7883,-4.0804 2.451,-4.4118c1.456,-0.72802 4.8369,1.0454 4.902,0.98039c0.5719,-0.57189 0.4085,-1.8791 0.98039,-2.451c5.1145,-5.1145 6.4244,1.4188 7.3529,0.4902c0.19364,-0.19364 2.4266,-4.9263 3.9216,-3.4314c0.36607,0.36608 3.2737,2.6086 4.4118,1.4706c0.66939,-0.66939 0.31099,-3.2522 0.98039,-3.9216c1.9973,-1.9972 5.3922,-4.2762 5.3922,-2.9412c0,2.271 5.1775,-11.489 3.9216,-12.745c-2.412,-2.412 -4.4043,2.9337 -5.8824,4.4118c-0.81699,0.817 -4.085,-0.81699 -4.902,0c-2.3939,2.3939 -3.764,5.7248 -5.8824,7.8431c-0.0224,0.0225 -20.919,1.3115 -22.549,2.9412c-0.42454,0.42453 2.7518,14.026 4.4118,15.686c0.4194,0.4194 2.5786,-0.36257 3.4314,0.4902c0.81699,0.81699 2.6144,0.65359 3.4314,1.4706c0.58914,0.58914 0.4902,3.2842 0.4902,2.451c0,-0.20368 -3.3593,-0.0721 -4.4118,0.98039c-0.77903,0.77903 -2.9422,0.001 -3.9216,0.98039c-0.73529,0.7353 -0.2451,2.6961 -0.98039,3.4314c-3.9295,3.9295 -14.473,-1.2136 -18.627,2.9412c-1.6061,1.6061 -0.9294,5.2392 -0.98039,5.3922c-0.26782,0.80344 -2.846,0.39498 -3.4314,0.98039c-1.1779,1.1779 -1.9459,2.4361 -2.9412,3.4314c-0.93152,0.93152 0.80158,4.1799 -0.4902,3.9216c-0.81699,-0.1634 0.3268,-1.634 0,0l0,0.00024z" fill="#236523" id="path4055"/>
    <path d="m124.73885,140.52499c15.867,-8.5691 9.8781,2.8556 17.978,10.955c0.73848,0.73848 3.8818,-2.7582 4.2135,-3.0899c1.5522,-1.5522 4.2834,0.49189 6.4607,-1.6854c0.74102,-0.74103 3.4257,-1.9663 5.0562,-1.9663c0.94099,0 3.75,-0.28089 2.809,-0.28089c-0.47431,0 0.54022,1.0804 0.8427,1.6854c0.31698,0.63396 -0.48553,2.6044 0,3.0899c0.95601,0.95601 2.319,-0.77085 3.0899,0c1.4218,1.4218 -0.70557,7.7214 -0.5618,7.8652c1.0125,1.0125 4.2135,-1.1339 4.2135,1.1236c0,0.44731 0.28468,2.5243 0,2.809c-0.85283,0.85284 -2.7769,2.4639 -3.3708,3.6517c-1.2254,2.4507 -2.8035,7.8597 -0.8427,5.8989c0.8805,-0.8805 1.772,-2.3338 2.809,-3.3708c0.12987,-0.12986 -0.0975,-2.2472 0,-2.2472c0.37453,0 0.85876,-0.26483 1.1236,0c0.96623,0.96623 -0.004,4.2221 -0.56179,5.3371c-1.7901,3.5801 -9.106,2.6454 -10.112,3.6517c-0.91673,0.91673 -1.4525,2.5761 -2.2472,3.3708c-1.5844,1.5844 -5.3662,0.29546 -7.0225,1.1236c-2.6789,1.3394 -4.0877,3.027 -6.4607,4.2135c-0.59925,0.29963 -1.6479,-0.29962 -2.2472,0c-2.0434,1.0217 -3.6113,1.6652 -5.3371,2.5281c-0.58008,0.29004 -2.0848,-0.16242 -2.5281,0.2809c-4.9956,4.9956 14.729,6.619 6.7416,14.607c-0.28952,0.28953 0.009,1.6768 -0.28089,1.9663c-1.0605,1.0605 -6.4857,-1.6854 -7.3034,-1.6854c-0.90546,0 -1.4885,7.2049 -5.0562,8.9888c-2.408,1.204 -4.0427,-6.6314 -6.7416,-3.9326l-3.3708,3.3708c-1.1616,1.1616 -4.8395,-0.95104 -6.1798,-0.2809c-0.948,0.474 -1.6396,0.79694 -2.2472,1.4045c-0.36822,0.36822 -2.7354,-0.20736 -3.6517,-1.1236c-0.84861,-0.84862 -4.2263,2.2344 -7.0225,-0.5618c-0.7313,-0.7313 -2.0866,0.53173 -3.0899,0.2809c-0.72271,-0.18068 -1.2952,-2.6997 -1.6854,-3.0899c-0.4704,-0.4704 -2.0227,-0.33729 -2.5281,-0.8427c-3.7386,-3.7386 9.1894,-12.44 7.3034,-14.326c-1.2532,-1.2532 -5.6692,0.51053 -6.1798,0c-0.85693,-0.85693 -0.93128,-2.6167 -1.6854,-3.3708c-0.6272,-0.6272 -2.6405,3.7079 -3.0899,3.9326c-0.46826,0.23413 -5.0656,1.6807 -6.1798,1.1236c-0.34398,-0.172 -0.46833,-1.498 -1.4045,-0.5618c-0.56302,0.56302 -3.5953,5.6743 -5.0562,4.2135c-0.49554,-0.49553 -1.0327,-1.8754 -1.4045,-2.2472c-0.45102,-0.45102 -5.963,3.0578 -7.5843,2.2472c-1.1511,-0.57556 0.14208,-2.386 -0.5618,-3.0899c-0.98058,-0.98058 -3.9326,0.54843 -3.9326,0c0,-1.2316 -1.4326,-2.7808 -0.5618,-3.6517c0.21356,-0.21357 2.7675,-2.0078 2.2472,-2.5281c-2.2836,-2.2836 -6.7451,3.0864 -7.5843,2.2472c-0.88275,-0.88275 3.0267,-8.8625 3.6517,-10.112c0.18727,-0.37453 0.93633,0.93633 0.5618,1.1236c-2.7618,1.3809 -7.8462,-1.3855 -9.2697,-2.809c-0.44487,-0.44487 -6.1714,0.2851 -6.1798,0.2809c-1.0538,-0.52692 -1.865,-0.8427 -3.3708,-0.8427c-0.37453,0 -1.1236,0.37453 -1.1236,0c0,-0.4307 -0.9692,-0.12651 -1.4045,-0.5618c-0.67458,-0.67458 -2.0308,-1.8144 -2.5281,-2.809c-0.79139,-1.5828 -0.88046,-4.0081 -1.6854,-5.618c-0.59223,-1.1845 -1.2896,-4.8902 0,-6.1798c0.61744,-0.61744 1.7082,-0.86555 2.2472,-1.4045c0.7689,-0.76889 -2.1417,-4.3189 -0.2809,-6.1798c2.0052,-2.0052 14.62,0.54832 19.663,-4.4944c1.8216,-1.8216 -0.20198,-4.6522 1.1236,-7.3034c0.60711,-1.2142 1.7953,-1.5144 2.5281,-2.2472c2.2742,-2.2742 7.5415,3.3494 8.7079,3.9326c0.06359,0.0318 1.4024,1.6833 1.6854,1.9663c0.23408,0.23408 1.1704,-0.23408 1.4045,0c3.126,3.126 5.9809,-6.2618 7.3034,-7.5843c0.01167,-0.0117 3.0526,0.0373 3.9326,-0.84269c3.4595,-3.4595 6.267,-9.7442 2.2472,-13.764c-0.09346,-0.0935 -1.0669,0.0189 -1.1236,0c-5.7774,-1.9258 -6.7911,3.2551 -9.8315,4.7753c-1.7741,0.88704 -7.8652,-0.29721 -7.8652,-1.4045c0,-0.40234 -0.25607,-2.272 0,-2.5281c0.17391,-0.17391 2.5186,-1.9758 2.2472,-2.2472c-0.32772,-0.32772 -1.6386,0.32771 -1.9663,0c-0.4888,-0.48881 -4.4061,-5.9872 -6.7416,-3.6517c-1.5197,1.5196 -0.39682,6.0148 -2.5281,8.1461c-0.74965,0.74965 -2.765,-0.72425 -3.6517,-0.2809c-0.5717,0.28585 -0.53163,2.217 -1.1236,2.809c-0.58716,0.58716 -2.7059,-2.3502 -5.618,0.5618c-0.35781,0.3578 -0.9705,-0.2809 -1.1236,-0.2809c-3.9312,0 -2.461,-6.9554 -3.6517,-8.1461c-0.77299,-0.77299 -3.7106,-2.6391 -5.618,-1.6854c-4.1694,2.0847 -7.016,8.8515 -14.607,5.0562c-4.9305,-2.4652 -0.72117,-7.0603 -1.9663,-9.5506c-1.2546,-2.5092 -3.2838,-3.0029 -5.3371,-5.0562c-1.2621,-1.2621 3.6517,-1.7133 3.6517,-2.5281c0,-2.5401 -3.3034,-5.1909 -2.2472,-7.3034c0.7407,-1.4814 3.2152,-2.3725 4.2135,-3.3708c2.783,-2.783 -4.7081,-5.2699 -5.0562,-5.618c-1.5301,-1.5301 1.1308,-3.9182 0.2809,-5.618c-0.30135,-0.60269 -1.8253,-0.70171 -2.2472,-1.1236c-0.07436,-0.0744 0,-0.72704 0,-0.8427c0,-3.9766 2.3865,-0.98199 4.2135,-2.809c1.8708,-1.8708 -0.8389,-3.6593 0,-5.3371c0.80989,-1.6198 2.0193,-2.3532 2.809,-3.9326c1.2827,-2.5653 9.3172,-4.3086 10.674,-7.0225c0.54568,-1.0914 4.9698,-0.79948 6.1798,-1.4045c6.6592,-3.3296 0.88185,-10.955 10.393,-10.955c0.40234,0 2.272,-0.25607 2.5281,0c1.7659,1.7659 4.8006,1.9789 7.0225,3.0899c2.3939,1.1969 5.507,3.8771 8.427,5.3371c1.8529,0.92646 4.738,0.52452 5.8989,1.6854c1.2215,1.2215 5.2377,-0.89239 6.4607,-0.2809c2.3124,1.1562 2.554,3.3967 4.2135,5.0562c6.4116,6.4116 10.427,5.0224 16.573,-1.1236c1.55,-1.55 5.8067,-0.18876 7.3034,-1.6854c0.94266,-0.94265 0.84099,-3.65 1.6854,-4.4944c3.474,-3.474 -6.3286,-7.733 -7.3034,-8.7079c-0.729,-0.767 -5.853,1.827 -8.394,0.556c-2.986,-1.493 0.64,-4.135 -0.561,-5.337c-1.495,-1.494 -6.343,-1.005 -8.427,-3.09c-1.865,-1.865 -1.381,-5.312 -2.809,-6.741c-1.954,-1.953 3.084,-6.752 1.685,-9.551c-0.687,-1.373 -6.633,-7.973 -3.933,-10.674c1.8959,-1.8959 6.6749,-0.49512 8.7079,-2.5281c1.6663,-1.6663 3.057,-4.1806 4.4944,-5.618c1.303,-1.303 7.3216,-1.4227 7.8652,-1.9663c0.61041,-0.61041 0.82214,-1.9663 1.6854,-1.9663c0.23947,0 0.28467,3.3708 2.5281,3.3708c1.0778,0 4.2824,-3.5827 5.0562,-2.809c0.79221,0.79221 0.82555,2.23 1.9663,3.3708c1.0614,1.0614 3.83,-1.2262 4.7753,-0.2809c0.47598,0.47598 0.40103,2.0864 1.1236,2.809c0.51548,0.51547 1.9135,0.22813 2.5281,0.8427c1.2579,1.2579 -1.7481,7.8965 2.809,5.618c1.0904,-0.54519 1.3403,-2.183 2.2472,-3.0899c1.0806,-1.0806 3.3454,-1.0982 4.2135,-1.9663c1.8667,-1.8667 7.4322,0.43297 9.2697,-1.4045c0.93373,-0.93373 0.82973,-2.7831 1.4045,-3.9326c0.4425,-0.885 1.1868,-2.0295 1.6854,-2.5281c1.9426,-1.9426 -6.5505,-4.5956 -4.4944,-8.7079c2.3302,-4.6604 4.3068,-0.37423 7.0225,-3.0899c1.1047,-1.1047 0.58061,-3.9514 0.84269,-4.2135c0.66486,-0.66486 2.1441,-1.0205 2.809,-1.6854c0.98315,-0.98315 0.70225,-3.2303 1.6854,-4.2135c1.6272,-1.6272 4.3838,1.5748 5.0562,2.2472c0.81017,0.81016 3.0418,-0.30496 3.6517,0c0.90578,0.45289 1.026,1.8687 1.6854,2.5281c1.1724,1.1724 3.1242,-1.932 4.4944,-0.5618c1.1204,1.1204 1.039,2.7244 2.2472,3.9326c0.70224,0.70225 3.2303,-0.42135 3.9326,0.2809c0.70225,0.70225 1.264,1.5449 1.9663,2.2472c1.7352,1.7352 13.764,-7.6736 13.764,-5.8989c0,0.07334 1.2809,2.1236 1.6854,2.5281c0.82061,0.82061 -0.73503,4.0403 -0.2809,4.4944c0.67974,0.67974 2.4964,0.2492 3.0899,0.8427c0.79588,0.79588 -0.51498,3.6985 0.2809,4.4944c0.55573,0.55573 2.7178,0.4706 3.6517,1.4045c1.0254,1.0254 -0.42253,3.9302 0.2809,5.3371c1.426,2.852 2.2131,0.52772 4.2135,2.5281c0.78932,0.78933 -0.39583,3.2559 0.28089,3.9326c1.1054,1.1053 10.786,-6.4607 11.236,-6.4607c0.64276,0 4.2135,-4.071 4.2135,-2.2472c0,0.2664 0.87223,0.31043 1.4045,0.8427c0.9199,0.9199 1.0776,2.2242 2.2472,2.809c2.4906,1.2453 8.4085,-1.7038 8.9888,-1.1236c0.61508,0.61508 1.5198,2.0815 2.2472,2.809c0.99951,0.9995 3.979,1.17 5.0562,2.2472c0.60862,0.60861 -0.0468,2.4813 0.5618,3.0899c0.99617,0.99617 4.2093,-0.56599 5.3371,0.5618c2.5226,2.5225 0.0931,7.7721 -1.4045,9.2697c-1.3192,1.3192 3.1026,4.5071 3.3708,4.7753c1.685,1.685 -2.3607,5.8449 -2.809,6.7416c-0.79653,1.5931 -5.618,-0.62184 -5.618,1.4045c0,1.5359 0.11894,2.1713 0,2.5281c-0.36501,1.095 -2.3668,0.40052 -3.0899,1.1236l-3.9326,3.9326c-1.3352,1.3353 -5.0717,-1.3889 -6.4607,0c-3.1197,3.1197 4.9374,7.4222 2.809,9.5506c-1.4141,1.4141 -5.1262,0.63186 -6.4607,1.9663c-0.79607,0.79607 0.48833,2.0398 -0.28089,2.809c-2.1175,2.1175 -5.8629,-3.9685 -8.1461,-1.6854c-6.8071,6.8071 -18.268,3.6615 -19.944,5.3371c-1.3962,1.3962 -6.8708,-0.91855 -8.7079,0c-4.18,2.09 -8.1474,3.653 -11.798,7.3034c-1.5514,1.5514 -1.1278,4.4986 -2.5281,5.8989c-0.42369,0.42369 -2.5281,2.5842 -2.5281,3.0899c0,1.4893 -1.4913,2.6149 -2.2472,3.3708c-0.9668,0.9668 -0.95389,1.7966 -1.4045,2.2472c-1.0579,1.0579 -8.0654,1.0429 -8.7079,1.6854c-0.39435,0.39435 -2.2567,1.6854 -2.809,1.6854c-1.0104,0 -2.232,0.82747 -2.809,1.4045c-1.2749,1.2749 -2.809,0.10311 -2.809,-1.4045c0,-0.84313 8.6576,-9.32 6.7416,-11.236c-0.17058,-0.17057 -2.5281,-0.13769 -2.5281,-0.2809c0,-0.21206 -3.4979,0.12711 -3.9326,0.5618c-1.608,1.608 -1.7328,3.6991 -3.0899,5.0562c-1.0194,1.0194 -3.1023,1.9787 -4.7753,3.6517c-0.8008,0.80081 -0.8754,-3.6517 -3.9326,-3.6517c-2.6967,0 -6.3213,6.6 -3.3708,9.5506c0.10527,0.10526 2.872,1.2495 3.0899,1.6854c1.0816,2.1631 -0.55945,6.463 1.1236,8.1461c1.0072,1.0072 1.469,4.4944 0.84269,4.4944c-2.6788,0 -6.47,-1.4139 -7.8652,-2.809c-1.447,-1.447 -4.8923,0.44476 -6.4607,-1.1236c-1.1802,-1.1802 0.77751,-3.436 0,-4.2135c-0.283,-0.28299 -3.3154,-0.451 -3.3708,-0.56179c-0.25295,-0.50591 0.10011,-2.1471 -0.2809,-2.5281c-1.8902,-1.8903 -5.3093,2.2472 -6.1798,2.2472c-1.6605,0 2.196,-5.2222 -1.4045,-7.0225c-0.6739,-0.33694 -9.296,3.384 -10.393,3.9326c-0.41424,0.20712 -1.6514,-0.31491 -1.9663,0c-4.215,4.215 11.175,-1.4657 11.517,-1.1236c0.56006,0.56006 -2.1705,5.4138 -0.8427,6.7416c2.3815,2.3815 7.2402,-3.7148 7.8652,-3.0899c0.61089,0.61089 -3.374,3.6485 -2.2472,4.7753c1.665,1.665 6.5452,-1.8818 6.7416,-1.6854c0.22454,0.22453 -0.8896,2.2941 -1.1236,2.5281c-0.14409,0.14408 -0.2709,3.0899 -0.2809,3.0899c-0.26484,0 0.32492,0.44336 0.5618,0.5618c1.8543,0.92716 2.2063,2.7681 3.6517,4.2135c0.34994,0.34994 0,3.1386 0,3.6517c0,1.238 0.0899,3.2809 -0.5618,3.9326c-0.53771,0.53772 -5.6295,4.202 -7.0225,2.809c-0.52633,-0.52633 -1.0376,-1.1236 -2.2472,-1.1236c-4.8873,0 2.3286,8.9073 0.2809,10.955c-0.17561,0.17562 -0.39896,1.1236 -0.5618,1.1236c-0.0605,0 -7.2712,-0.31302 -7.8652,0.2809c-1.6892,1.6892 4.4895,7.0225 2.809,7.0225c-2.1417,0 -10.79,15.499 -8.9888,19.101c0.39498,0.78997 4.0002,5.2694 5.618,3.6517c0.57838,-0.57838 0.46799,-2.1534 1.1236,-2.809c1.0106,-1.0106 3.6517,-0.81795 3.6517,-2.2472c0,-1.9019 4.6125,-8.5451 5.8989,-9.8315c1.2424,-1.2424 7.5696,0.28824 9.2697,-0.5618c3.901,-1.9505 2.9497,-1.8261 6.1798,-5.0562l-0.033,0.00507z" fill="#008000" id="path4041"/>
    <path d="m85.19085,125.31499c-0.81387,-0.14265 6.1491,-4.145 4.4118,-5.8824c-2.4173,-2.4173 -16.235,-3.0002 -16.667,-3.4314c-1.3291,-1.3291 -0.51503,-3.9464 -1.4706,-4.902c-4.0494,-4.0494 -7.9398,2.8928 -10.784,1.4706c-3.328,-1.664 -5.4539,-3.7074 -7.8431,-4.902c-5.0397,-2.5198 -3.7792,4.0955 -6.3725,5.3922c-2.8596,1.4298 -6.1487,-1.4706 -8.3333,-1.4706c-4.3632,0 -9.2583,3.4868 -11.765,0.9804c-6.1568,-6.1568 7.4857,-6.5973 4.902,-11.765c-2.1633,-4.3266 -7.8106,-6.8952 -7.3529,-7.3529c0.54844,-0.54844 8.8258,-2.9366 8.3333,-3.9216c-1.384,-2.76 -22.545,-11.268 -23.038,-10.775c-0.3105,0.31 -2.0034,3.875 -0.9806,4.905c1.0279,1.0279 5.9298,-1.3757 6.3725,-0.4902c0.58965,1.1793 -3.114,2.7683 -1.4706,4.4118c1.4031,1.403 4.0526,3.0722 5.3922,4.4118c3.8324,3.8324 -8.1313,5.5942 -4.902,8.8235c2.0551,2.0551 0.52135,3.8904 -0.4902,4.902c-0.16884,0.16884 0.12719,2.9412 0,2.9412c-0.87496,0 2.451,-0.0559 2.451,0c0,0.32203 -0.21959,3.2118 0.4902,3.9216c1.634,1.634 0.3268,6.2092 1.9608,7.8431c1.0652,1.0652 4.4118,-0.52607 4.4118,0.9804c0,1.0334 0.24965,2.2104 0.98039,2.9412c3.1739,3.1739 9.6241,-6.8627 11.765,-6.8627c1.496,0 -0.6257,2.3155 0.4902,3.4314c3.6054,3.6054 3.9216,-4.3726 3.9216,2.451c0,1.3494 1.7454,3.0006 2.451,4.4118c1.5993,3.1986 3.0953,-2.2969 7.3529,1.9608c3.2176,3.2176 8.3191,-12.255 9.3137,-12.255c0.46486,0 2.6452,-0.29603 2.9412,0c1.4078,1.4078 -1.5603,1.871 0,3.4314c0.96436,0.96436 3.2355,0.29428 4.4118,1.4706c1.016,1.016 -4.7431,1.6295 -0.4902,5.8824c3.3461,3.3461 7.0995,-2.6877 7.8431,-3.4314c1.0092,-1.0092 3.2432,1.6588 4.4118,0.49019c0.32639,-0.32639 3.487,-2.178 3.9216,-1.9608c1.669,0.8345 0.25684,0.69097 3.4314,1.9608l-0.00129,-0.01219z" fill="#236523" id="path4061"/>
    <path d="m234.20885,27.76999c-0.24723,1.6234 4.902,-1.1519 4.902,0.4902c0,10.853 -4.0214,4.5116 -7.353,7.8431c-0.98039,0.98039 0.4902,4.4118 -0.49019,5.3922c-1.321,1.321 -3.8829,-1.9995 -4.902,-0.98039c-0.8987,0.89869 -1.0621,2.5327 -1.9608,3.4314c-1.5998,1.5998 -7.2143,-1.119 -9.3137,0.98039c-1.5258,1.5258 3.207,1.7364 3.4314,1.9608c0.42888,0.42888 4.379,5.9152 2.9412,7.3529c-0.87278,0.87277 -2.7498,0.29876 -3.4314,0.98039c-7.1133,7.1133 -5.6569,-2.3186 -12.255,0.98039c-2.5641,1.2821 -5.6475,3.6867 -7.3529,5.3922c-0.0332,0.03317 -5.3115,-0.57085 -6.3726,0.4902c-0.73529,0.73529 -0.2451,2.6961 -0.98039,3.4314c-1.5016,1.5016 -2.2295,-3.2099 -2.451,-3.4314c-1.0668,-1.0668 -1.7566,1.7566 -1.9608,1.9608c-0.13137,0.13137 -4.2465,-0.65268 -4.902,-0.98039c-7.1388,-3.5694 -9.6268,5.0791 -14.706,0c-1.9946,-1.9946 -8.8125,-0.47917 -9.8039,-1.4706c-0.76703,-0.76703 -1.1325,-2.1129 -1.9608,-2.9412c-1.0621,-1.0621 -5.3105,1.0621 -6.3726,0c-4.5724,-4.5724 -24.02,-1.8742 -24.02,-5.3922c0,-0.46158 7.0167,0.4902 7.3529,0.4902c2.2696,0 10.13,-3.1051 11.765,-1.4706c0.35725,0.35726 2.0805,1.4706 2.9412,1.4706l10.294,0c-0.98699,0 2.3026,1.3222 4.902,3.9216c1.8989,1.8989 4.7756,-3.0675 5.8824,-1.9608c0.74192,0.74191 -0.83358,2.7695 0.4902,3.4314c4.4622,2.2311 9.9681,-4.902 10.294,-4.902c6.444,0 3.0925,6.7114 10.784,-0.98039c1.2273,-1.2273 4.6181,5.1858 7.3529,2.451c2.8848,-2.8848 8.6492,-2.2766 11.765,-5.3922c0.60052,-0.60052 3.1932,2.9272 3.9216,1.4706c1.6952,-3.3904 -2.0906,-4.6713 -2.9412,-6.3725c-0.0695,-0.13896 1.4706,-1.3506 1.4706,-1.9608c0,-7.0225 3.7174,-4.4118 8.8235,-4.4118c1.1783,0 0.7825,-2.9412 1.9608,-2.9412c3.2458,0 4.1218,1.7606 5.8824,0c0.89869,-0.89869 -0.4085,-4.0033 0.49019,-4.902c1.3309,-1.3309 3.7151,1.1869 4.902,0c0.84115,-0.84115 -0.20917,-3.4314 0.98039,-3.4314c0.817,0 0,1.634 0,0l0.0006,0.0001z" fill="#236523" id="path4053"/>
    <path d="m162.14885,80.22499c-0.35609,1.4508 2.451,1.8618 2.451,3.9216c0,0.57313 -5.5904,-1.7626 -6.3726,-0.98039c-0.2244,0.22441 -2.4822,2.91 -1.4706,3.9216c1.3153,1.3153 3.8535,0.91233 5.3922,2.451c1.4419,1.4419 -0.55732,6.2383 -0.49019,6.3726c0.47701,0.95403 2.2531,0.29231 2.9412,0.98039c1.3279,1.3279 -1.5981,7.3529 -1.9608,7.3529c-0.25095,0 3.4458,-0.0144 3.9216,-0.49019c0.20421,-0.20421 1.841,-2.0806 2.451,-1.4706c1.293,1.293 -0.0261,11.791 5.8824,5.8824c4.1532,-4.1532 0.71358,6.7511 4.4118,4.902c1.7311,-0.86556 4.409,-0.97765 5.3922,-1.9608c0.64416,-0.64416 1.9608,-1.0357 1.9608,-0.98039c0,5.197 4.5155,4.308 7.3529,1.4706c0.81699,-0.81699 0.65359,-2.6144 1.4706,-3.4314c0.57771,-0.5777 1.7202,-0.36537 2.451,0c1.8384,0.91919 -1.3168,2.9412 0,2.9412c5.0522,0 17.091,1.1121 17.157,0.98039c0.77288,-1.5458 -1.2364,-2.2168 -1.9608,-2.9412c-1.5247,-1.5247 -3.0315,-4.0119 -4.902,-5.8824c-3.3905,-3.3905 -14.634,1.0519 -20.098,-4.4118c-1.2457,-1.2457 -9.8039,1.8429 -9.8039,0.98039c0,-0.6601 -1.4706,-1.5446 -1.4706,-3.4314c0,-2.0015 1.4372,-2.5177 0.9804,-3.4314c-0.21311,-0.42621 -8.8235,-0.0278 -8.8235,-0.49019c0,-6.6103 1.9979,-21.116 -6.8628,-12.255l-0.00031,0.00009z" fill="#236523" id="path4059"/>
    <path d="m166.06885,152.27499c-2.5341,2.8735 2.9412,5.2654 2.9412,5.3922c0,0.85585 -1.0669,1.5571 -1.9608,2.451c-1.7628,1.7628 0.49441,7.3487 -1.4706,9.3137c-3.0213,3.0213 -8.5372,4.1254 -11.765,7.3529c-0.83318,0.83318 -0.7825,2.9412 -1.9608,2.9412c-1.1744,0 -3.4846,-2.888 -4.4118,-1.9608c-1.2274,1.2274 -3.1104,4.0908 -4.4118,5.3922c-1.731,1.731 -8.0388,0.68586 -9.8039,2.451c-1.1373,1.1374 -3.1738,0.72285 -3.9216,1.4706c-1.556,1.556 15.077,6.6115 12.255,12.255c-1.8958,3.7917 -10.49,-1.2745 -11.765,0c-1.3889,1.3889 1.3889,6.9444 0,8.3333c-5.2866,5.2866 -4.5898,-6.2835 -10.294,-3.4314c-1.6507,0.82534 -1.3928,2.8634 -2.451,3.9216c-1.3549,1.3549 -10.506,0.4902 -11.275,0.4902c-0.36136,0 -3.6692,-0.7426 -4.4118,0c-0.41659,0.41658 -1.4706,1.5695 -1.4706,0.98039c0,-0.83317 0.09895,-1.8618 -0.4902,-2.451c-1.1134,-1.1134 -2.8818,2.9709 -4.902,1.9608c-0.27854,-0.13927 0.23646,-1.7243 0,-1.9608c-1.5566,-1.5566 -3.3918,0.0396 -4.902,-1.4706c-5.2371,-5.2371 12.876,-9.6729 6.3725,-16.176c-1.0463,-1.0463 -3.3655,0.55607 -4.4118,-0.49019c-0.7491,-0.74911 -0.02862,-4.4118 -1.4706,-4.4118c-2.4135,0 -1.1117,7.3529 -3.4314,7.3529c-6.2739,0 -13.644,1.8796 -17.647,5.8824c-4.0266,4.0266 -3.0804,-3.5706 -4.4118,-4.902c-2.255,-2.255 -4.0863,4.7372 -5.8824,2.9412c-2.7763,-2.7763 3.4491,-11.283 -2.451,-8.3333c-7.7573,3.8786 -2.0145,-5.4459 -2.451,-5.8824c-1.4381,-1.4381 -3.4314,-0.35904 -3.4314,-3.4314c0,-0.49019 -0.4902,-1.4706 0,-1.4706c0.40381,0 -2.3685,-0.28635 -2.9412,0c-0.50949,0.25475 -3.1274,3.2451 -3.4314,2.9412c-0.83601,-0.83601 -0.95046,-4.4118 -2.451,-4.4118c-1.3174,0 -3.4314,3.2782 -3.4314,1.9608c0,-0.005 -1.847,-3.3176 -2.9412,-4.4118c-0.58914,-0.58914 -2.451,0.34298 -2.451,-0.49019c0,-1.1053 -0.74046,-2.7012 -1.4706,-3.4314c-1.1989,-1.1989 -0.03787,-6.3347 0.4902,-6.8628c0.47638,-0.47638 1.9608,0.18351 1.9608,-0.4902c0,-1.4706 -1.478,-5.3847 -0.98039,-5.8824c1.7129,-1.7129 10.874,-2.3615 11.765,-1.4706c0.16271,0.16271 2.2154,1.7062 2.451,1.4706c1.1824,-1.1824 7.3796,-2.9145 9.8039,-0.49019c0.92016,0.92015 -1.706,5.1761 -1.4706,5.8824c0.46236,1.3871 6.8627,1.706 6.8627,2.451c0,1.6395 1.1501,6.052 2.9412,7.8431c1.4781,1.478 15.917,9.5735 20.098,5.3922c8.528,-8.528 -9.0749,-3.5508 7.3529,-11.765c2.1504,-1.0752 4.43,4.9202 5.8824,6.3726c1.7141,1.7141 1.51,4.9414 3.9216,7.3529c2.0954,2.0954 6.3007,2.8693 8.3333,4.902c4.2293,4.2293 11.275,-3.9288 11.275,-8.3333c0,-5.2393 8.9184,-1.5654 12.255,-4.902c0.17746,-0.17745 7.353,-0.88817 7.353,-0.49019c0,0.43725 7.9087,-3.9216 15.196,-3.9216c1.1468,0 1.0137,-1.0137 1.9608,-1.9608c0.71114,-0.71115 2.6678,-1.1972 3.9216,-2.451c1.6217,-1.6217 -1.2154,-4.687 -0.4902,-6.8627c0.0522,-0.1567 1.338,0.13259 1.4706,0c0.11554,-0.11554 0,-0.3268 0,-0.4902l2.451,-1.9608l0.00059,-0.00013z" fill="#236523" id="path4049"/>
    <path d="m138.12885,16.00499c1.687,2.3224 11.865,0.1001 12.255,0.4902c2.6205,2.6205 5.5127,3.5519 8.3333,6.3726c1.4621,1.4621 6.0269,-1.8162 6.8627,-0.98039c0.31176,0.31176 6.5368,4.2475 7.8431,2.9412c1.7877,-1.7877 -7.3179,-6.355 -8.3333,-6.8627c-2.6288,-1.3144 -15.291,-6.3725 -18.137,-6.3725c-4.8978,0 -8.1348,5.7891 -8.8235,4.4118c-0.32679,-0.65359 1.3072,-0.65359 0,0l-0.0003,-0.00021z" fill="#236523" id="path4051"/>
    <path d="m150.13885,-20.42301c0.513,0.588 0.71,1.492 0.66,2.643c3.017,0.593 3.745,-1.101 5.945,-1.321c0.734,1.249 0.844,3.12 1.323,4.624c2.089,0.108 2.208,-1.756 4.625,-1.321c1.099,0.882 0.219,3.743 1.321,4.625c4.098,-0.796 5.438,1.167 7.266,2.643c2.563,-1.18 2.749,-4.738 4.625,-6.607c0.867,0.233 1.039,1.163 1.982,1.322c1.207,-0.996 1.555,-2.85 2.642,-3.964c3.126,0.839 4.92,3.007 6.605,5.285c-0.398,2.022 -1.402,3.442 -1.98,5.285c2.039,0.108 3.734,-1.561 5.284,0c-0.217,1.544 -0.794,2.729 -1.32,3.964c0.413,1.568 4.066,-0.103 4.625,1.321c-0.354,2.952 -1.987,4.62 -1.323,8.587c2.292,0.531 2.54,-0.983 4.625,-0.66c0.731,1.25 0.844,3.121 1.322,4.625c3.47,-0.712 4.838,-3.528 5.945,-6.605c1.381,-0.28 1.75,0.452 2.642,0.66c0.515,-1.468 1.389,-2.577 1.32,-4.625c4.138,0.972 3.587,0.793 7.929,0c-0.315,2.297 -0.124,4.087 2.642,3.303c0.48,2.021 -1.14,1.943 -0.661,3.964c3.397,-0.567 3.929,-3.999 4.625,-7.267c2.296,0.128 2.508,2.336 4.624,2.643c0.479,2.021 -1.139,1.943 -0.66,3.963c0.916,1.728 5.606,-0.321 6.605,1.322c0.571,2.634 -0.985,4.881 0,5.945c3.839,0.314 2.848,-4.201 6.607,-3.963c1.903,1.995 -1.655,5.905 1.321,7.267c-1.029,2.494 -2.935,4.112 -3.964,6.605c-0.14,2.123 2.355,1.608 3.304,2.643c-0.138,4.928 -0.874,9.256 -2.644,12.552c-2.077,0.316 -2.582,-0.94 -3.965,-1.322c-1.644,0.999 -0.825,4.459 -1.98,5.946c-3.607,-1.547 -5.454,0.071 -6.605,2.643c-1.899,0.137 -3.355,-0.167 -3.965,-1.322c-1.346,0.194 -1.294,1.788 -2.643,1.982c2.308,2.097 4.391,4.419 4.624,8.588c-3.902,2.628 -7.086,2.099 -8.587,6.606c-2.661,-0.877 -5.143,-5.405 -9.249,-2.642c1.612,1.029 4.657,0.629 4.625,3.303c5.894,-0.83 6.739,3.39 9.909,5.285c5.433,-0.107 5.367,-8.373 10.57,-6.605c-0.822,-6.328 1.502,-9.507 2.641,-13.874c2.783,0.3 3.168,2.999 4.625,4.625c1.697,-0.064 0.945,-2.579 2.644,-2.643c2.394,-0.632 0.67,2.852 1.98,3.303c3.462,-0.282 2.833,-4.654 7.269,-3.963c0.375,4.127 -2.115,8.155 1.32,9.909c5.293,-0.652 4.074,-7.816 8.587,-9.249l0,3.303c2.154,-1.149 3.308,-3.3 5.947,-3.963c1.438,1.381 -0.331,1.885 0,3.963c2.777,0.136 2.772,-2.51 5.284,-2.642c-1.146,5.506 -0.045,7.303 -1.982,13.212c2.164,-0.037 2.525,-1.878 5.285,-1.321c-0.729,3.37 1.942,3.342 3.304,4.625c-1.222,4.064 -2.666,7.905 -5.285,10.57c0.435,1.978 1.412,-0.632 2.642,0c-0.367,4.077 -1.708,5.145 0,8.588c4.991,0.368 5.646,-3.604 8.589,-5.285c2.266,2.156 1.889,1.56 5.284,0.661c0.461,3.544 -3.27,2.896 -3.304,5.946c0.57,2.887 3.439,-0.355 4.625,1.32c0.682,7.509 -2.095,11.558 -3.963,16.515c-5.845,-0.779 -5.234,4.896 -7.268,7.928c-1.934,-0.49 -3.246,-1.598 -4.624,-2.643c-2.189,0.012 -0.671,3.733 -1.981,4.624c-3.818,0.296 -3.294,-3.752 -6.605,-3.963c-1.687,0.736 0.263,5.109 -1.323,5.945c2.232,1.292 5.231,1.817 6.607,3.964c4.549,-3.587 13.064,-3.71 14.532,-11.891c3.619,2.54 4.61,-0.828 7.269,-2.643c2.474,0.516 0.425,3.195 0,4.625c2.604,0.182 2.019,-2.824 4.624,-2.643c1.528,1.468 -0.226,2.576 0,4.625c4.941,0.757 5.951,-2.416 10.569,-1.982c-0.393,2.471 -2.31,3.416 -3.304,5.285c-1.521,0.203 -0.733,-1.908 -1.98,-1.982c-4.252,3.475 -8.346,-1.156 -11.893,0c-0.513,-0.587 -0.71,-1.491 -0.66,-2.643c-7.404,1.624 -7.351,10.707 -13.872,13.212c-0.555,-0.767 -0.872,-1.771 -0.66,-3.303c-1.886,1.198 -2.931,3.234 -6.607,2.643c-0.072,-1.645 -1.237,-2.045 0,-3.303c-4.449,-2.229 -10.018,1.725 -13.211,-3.304c-0.296,-2.938 0.469,-4.815 1.32,-6.605c3.288,-0.866 2.811,2.034 5.285,1.982c1.701,-0.94 0.989,-4.296 3.304,-4.625c2.743,0.119 3.214,2.51 4.622,3.963c1.219,-1.425 2.033,-3.253 3.304,-4.624c1.654,0.548 2.594,1.809 4.625,1.981c2.642,-1.982 1.975,-7.273 6.605,-7.266c1.235,-2.95 1.813,-6.556 2.644,-9.909c-0.57,-1.854 -3.439,-1.406 -4.625,-2.643c-0.211,-1.532 0.106,-2.537 0.661,-3.304c-0.164,-0.717 -1.313,-0.448 -1.321,-1.321c-3.114,0.409 -4.05,2.997 -7.268,3.303c-4.864,-0.2 -2.06,-8.071 -5.945,-9.248c0.939,-3.905 4.479,-5.211 5.285,-9.249c-0.017,-2.406 -3.439,-1.404 -2.642,-4.625c-1.513,0.421 -3.986,1.311 -5.285,0c-0.551,-3.632 1.654,-4.512 1.32,-7.927c-0.014,-2.848 -4.959,-0.766 -4.624,-3.963c-7.061,-0.077 -9.331,11.647 -15.854,5.945c-0.066,-2.708 -0.13,-5.415 0.66,-7.267c-2.5,0.803 -3.986,2.621 -5.945,3.964c-1.517,-1.127 -4.262,-1.023 -5.945,-1.982c-2.282,2.562 -3.553,6.137 -3.964,10.57c-6.617,-0.012 -6.691,6.52 -13.874,5.945c-2.896,-2.167 -3.864,-6.264 -9.909,-5.285c-0.295,-2.566 -2.931,-2.793 -5.285,-3.303c-1.907,0.954 -3.1,2.625 -4.622,3.964c-1.351,-0.632 -2.615,-1.35 -3.964,-1.982c-2.351,0.513 -1.241,4.484 -3.965,4.624c-2.464,-0.179 -0.867,-4.417 -2.641,-5.285c-1.7,0.504 -2.802,1.605 -3.304,3.304c-3.322,-3.917 -11.437,-3.373 -11.23,3.303c-1.644,0.102 -2.045,-1.037 -3.304,-1.321c-2.47,1.402 -0.608,4.576 -0.66,7.267c-1.381,1.44 -1.886,-0.33 -3.964,0c-3.456,2.158 0.618,8.019 -0.661,9.91c-3.723,-1.643 -7.116,-4.173 -8.588,1.322c1.973,1.991 5.536,2.392 4.625,7.266c0.995,1.208 2.851,1.554 3.964,2.644c0.439,3.08 -1.041,4.243 -1.321,6.605c1.535,1.277 3.509,-2.626 5.946,-2.643c3.331,1.619 0.235,5.565 1.98,8.588c2.508,-1.016 2.779,-4.269 5.285,-5.285c5.004,0.186 0.273,6.454 3.964,7.267c3.481,-0.043 3.506,-3.54 6.605,-3.963c1.924,1.932 -0.249,4.088 1.983,5.945c4.208,-0.856 3.866,-6.261 9.249,-5.945c0.555,0.766 0.87,1.771 0.66,3.303c2.52,-0.028 4.202,-3.243 6.605,-1.322c0.476,1.708 -1.165,0.865 -1.98,1.322c-2.396,1.338 -4.118,4.073 -7.269,4.625c-0.652,-2.586 1.461,-3.835 0,-5.285c-2.348,0.954 -3.93,2.676 -5.284,4.624c1.604,11.035 -3.441,20.647 -9.249,26.424c1.833,-7.35 13.437,-19.501 3.964,-25.763l0,-3.964c-3.554,-0.251 -3.192,3.414 -6.605,3.303c-1.921,-1.162 -3.12,-3.045 -2.644,-6.605c-3.308,-0.667 -2.324,2.959 -4.625,3.303c0.595,4.352 -3.258,8.361 -3.962,15.196c-0.597,5.762 0.717,10.458 0,15.853c-5.133,-6.085 -1.245,-22.917 2.642,-29.066c-3.053,-2.001 -2.366,-4.82 -1.981,-9.249c-3.02,0.089 -4.817,4.093 -7.268,2.643c-1.428,-2.074 1.396,-4.464 1.323,-7.267c-0.014,-1.968 -3.116,-0.847 -3.964,-1.981c-0.08,-1.903 0.361,-4.325 -0.66,-5.285c-0.604,-1.796 -1.229,1.76 -3.304,0.66c-2.005,-4.386 0.68,-9.318 2.644,-11.891l3.302,0c2.051,-5.438 5.771,-9.203 7.268,-15.193c1.54,-0.202 2.845,-1.411 3.302,0.66c1.327,-2.197 2.594,-4.455 4.625,-5.945c3.361,-0.059 5.729,0.876 7.268,2.642c2.322,-0.099 1.586,-3.257 4.625,-2.642c1.863,-0.103 1.653,1.868 2.641,2.642c2.57,-0.547 4.078,-4.493 6.606,-1.321c4.608,-2.985 10.529,-9.743 16.515,-3.964c2.162,-0.921 2.093,-4.074 5.947,-3.303c1.065,-6.35 -7.143,-3.428 -5.947,-9.909c4.683,0.835 6.043,-4.462 10.571,-1.321c1.482,-0.278 0.019,-3.505 1.321,-3.964c1.628,-0.087 3.182,-0.1 3.964,0.661c1.726,-0.917 1.871,-3.414 2.642,-5.285c1.532,-0.211 2.535,0.105 3.304,0.66c1.923,-0.938 1.812,-3.912 2.642,-5.945c-0.664,-2.573 -2.274,-0.103 -4.625,-0.661c-1.267,-6.648 5.509,-8.451 3.304,-13.873c-1.546,1.405 -5.253,1.984 -6.605,0c-0.323,-2.085 1.189,-2.333 0.661,-4.625c-1.828,-0.512 -8.074,0.995 -7.269,-3.964c-3.08,0.444 -3.228,3.819 -7.266,3.304c-0.854,-2.45 -2.115,-4.491 -3.964,-5.945c-4.139,0.045 -3.869,4.5 -5.945,6.605c-5.943,-0.878 -6.119,4.011 -9.91,5.285c-1.141,-1.5 -1.594,-3.691 -1.32,-6.605c-1.557,-0.015 -1.945,1.137 -3.964,0.661c-1.974,-2.046 -1.515,-7.056 0,-9.249c-1.253,-2.203 -4.229,1.145 -5.285,-0.661c-0.102,-1.644 1.037,-2.045 1.32,-3.303c-0.88,-1.101 -2.937,-1.026 -3.962,-1.982c-0.22,-2.42 0.732,-3.671 1.321,-5.285c0.279,-2.26 -1.979,-1.985 -2.644,-3.303c-2.802,3.584 -8.317,4.454 -10.57,8.588c-3.152,-1.642 -3.966,-5.474 -9.247,-3.303c-0.381,-1.382 -1.638,-1.887 -1.323,-3.964c-2.081,-0.319 -1.495,2.028 -3.964,1.322c-0.379,-1.382 -1.636,-1.885 -1.321,-3.964c-2.958,2.388 -6.462,0.115 -7.926,-2.642c-1.823,1.92 -1.307,6.182 -5.285,5.945c1.125,6.411 -4.008,6.563 -7.268,8.589c1.287,3.813 4.375,4.534 7.928,4.624c-1.854,3.874 -5.724,5.728 -6.605,10.571c0.555,3.847 7.509,1.298 7.926,5.285c1.361,-0.182 0.623,-2.461 1.981,-2.643c3.43,0.531 1.175,3.969 0,5.285c-5.556,-1.49 -12.702,-1.39 -12.551,-8.589c-0.998,-0.522 -6.041,0.541 -7.266,1.982c-6.518,-2.788 -5.105,6.33 -11.232,5.945c-2.338,-2.393 0.317,-4.107 0.663,-7.266c-0.882,-1.321 -4.319,-0.087 -3.304,-3.304c-2.468,-0.707 -1.883,1.641 -3.964,1.322c-1.792,-0.852 -1.65,-3.636 -3.302,-4.625c-2.576,-0.152 -3.426,1.42 -5.285,1.982c-2.071,0.309 -1.863,-1.661 -2.643,-2.643c-1.488,2.093 -3.585,1.494 -5.285,2.643c-3.571,2.411 -4.559,8.178 -11.23,7.267c-2.757,0.767 -3.637,3.409 -5.285,5.285c3,2.62 7.312,9.164 1.981,12.551c0.206,0.897 1.654,0.549 2.644,0.661c-0.705,5.174 3.473,6.483 2.641,9.91c2.759,0.558 3.121,-1.285 5.285,-1.322c0.666,1.316 1.143,2.822 2.643,3.303c-0.708,1.495 -1.5,2.906 -2.643,3.964c0.892,3.198 5.245,-0.708 5.945,1.982c1.863,-0.12 0.824,-3.14 3.304,-2.643c0.79,1.412 3.583,0.82 2.643,3.963c4.034,-1.943 6.167,-1.729 11.23,-2.643c-0.527,4.65 -4.95,7.038 -2.644,12.552c-1.217,1.866 -3.192,2.973 -4.625,4.625c-2.318,0.118 -2.172,-2.231 -3.962,-2.643c-2.753,1.211 -6.829,1.1 -5.947,5.945c-2.542,-0.12 -2.989,1.854 -3.962,3.303c-2.394,-2.451 -7.725,-1.964 -11.232,-3.303c-0.098,-1.641 0.343,-2.741 1.323,-3.303c-0.279,-1.484 -3.505,-0.018 -3.964,-1.322c0.283,-1.258 1.422,-1.659 1.321,-3.303c-0.85,-1.847 -1.367,2.081 -3.302,1.321c-1.239,-1.258 -0.074,-1.659 0,-3.303c-2.717,0.135 -2.234,2.836 -3.964,3.303c-0.86,0.233 -1.219,-1.871 -2.643,-1.981c-1.754,-0.136 -1.191,2.532 -3.302,1.321c0.27,-1.591 -1.207,-1.436 -0.66,-3.303c-2.635,-0.654 -1.991,1.974 -4.625,1.321c-1.239,-1.259 -0.074,-1.66 0,-3.304c-1.383,-1.439 -1.887,0.33 -3.964,0c-0.754,-6.104 -4.114,-2.284 -7.929,-1.321c-1.227,-1.168 0.288,-1.929 0.661,-3.304c-3.15,0.14 -2.931,1.684 -5.945,0.662c0.694,4.421 -4.79,6.643 -6.605,10.569c-3.661,-0.92 -4.295,-0.241 -5.285,2.643c-1.688,-0.294 -3.036,-0.927 -3.964,-1.982c-2.007,0.635 -1.438,3.846 -2.642,5.285c-2.371,0.389 -3.196,-0.768 -4.625,-1.321c1.004,3.745 0.324,4.921 -1.982,6.606c0.369,2.006 2.456,4.479 0.66,6.606c-3.113,0.25 -4.143,-1.583 -5.945,-2.643c-0.588,0.292 -1.182,0.58 -1.322,1.321c0.088,3.151 1.499,0.879 3.964,1.322c-0.099,1.64 0.341,2.741 1.321,3.303c-0.064,1.698 -2.579,0.945 -2.643,2.643c0.35,0.531 0.689,1.072 0.662,1.982c2.722,0.52 1.241,-3.163 3.963,-2.642c3.672,2.791 2.125,7.176 1.322,11.89c-1.865,1.044 -2.806,-0.76 -4.625,0.661c0.091,2.331 1.89,2.955 1.982,5.285c-0.634,1.128 -2.076,1.448 -3.304,1.982c0.9,2.303 1.158,2.736 3.964,1.982c-0.508,3.15 0.933,4.352 2.642,5.285c-1.022,1.353 -1.022,5.914 0,7.267c2.033,0.491 1.27,-1.813 3.304,-1.322c1.292,1.235 0.203,2.419 0,3.964c6.069,1.534 6.013,-6.14 9.907,-4.625c1.062,-1.141 0.321,-4.083 1.983,-4.625c2.767,-0.565 1.446,2.958 2.642,3.964c2.496,0.562 3.102,-2.193 4.625,-0.66c-0.564,4.66 -0.834,7.519 1.323,10.569c2.859,0.218 1.626,-3.659 4.623,-3.304c0.774,0.987 0.822,2.703 1.983,3.304c2.474,0.052 0.167,-4.678 2.642,-4.624c2.25,-0.489 1.089,2.434 2.644,2.644c2.659,-2.188 1.185,-8.505 2.641,-11.893c3.388,1.108 3.22,1.108 6.607,0c0.477,2.019 -0.676,2.408 -0.66,3.964c0.561,1.938 1.662,-0.86 3.302,0c0.268,3.352 -1.566,4.599 -2.642,6.605c1.203,0.18 4.9,1.048 7.266,1.981c1.285,-1.357 1.839,-3.443 2.644,-5.283c2.033,-0.493 1.269,1.812 3.302,1.32c0.954,-0.808 1.001,-2.521 1.983,-3.303c2.21,2.583 5.746,3.695 9.247,3.303c0.453,3.314 -1.588,4.136 -3.962,4.625c0.098,5.383 -3.487,7.082 -3.964,11.891c-1.38,0.279 -1.75,-0.453 -2.644,-0.66c-2.92,1.263 -0.983,7.383 -3.962,8.588c-2.48,0.497 -1.44,-2.525 -3.304,-2.643c-1.84,-0.298 0.519,3.601 -1.321,3.301c-2.701,-0.159 -2.287,-3.439 -3.304,-5.282c-3.288,1.775 -3.653,-2.797 -5.285,-4.625c-1.694,0.068 -1.061,2.462 -1.981,3.304c-2.035,0.491 -1.271,-1.815 -3.304,-1.322c2.26,6.336 -2.691,8.513 -4.625,12.551c-3.878,-1.556 -5.538,2.087 -7.926,-1.32c-0.894,0.65 -1.321,1.764 -1.983,2.643c-1.933,0.172 -2.029,-1.494 -3.964,-1.322c-0.716,1.45 -2.909,1.137 -3.302,2.644c-0.293,1.119 5.003,6.021 -1.323,5.945c-1.291,5.695 2.398,6.41 1.983,11.229c1.305,0.898 3.074,1.331 3.304,3.305c2.334,-0.308 2.322,-2.961 5.285,-2.642c1.488,1.428 -0.549,2.252 0,4.624c3.004,-0.957 4.541,-3.388 8.586,-3.304c-0.465,3.858 -0.465,3.831 1.983,5.285c-0.347,2.077 -1.159,3.685 -1.983,5.284c0.196,1.348 1.788,1.295 1.983,2.642c3.066,-0.454 3.036,-4.008 7.266,-3.304c0.03,3.996 -2.444,5.484 -2.643,9.249c1.36,0.886 3.419,-3.162 5.287,-3.962c1.506,0.916 0.246,4.597 0.66,6.605c4.431,0.469 4.723,-3.204 7.266,-4.624c2.005,-0.242 1.371,2.152 1.981,3.304c3.422,-0.321 3.29,-4.2 5.285,-5.947c2.132,-0.591 0.93,2.154 1.983,2.644c1.356,-0.186 1.319,-1.766 1.981,-2.644c1.654,-0.112 2.069,1.018 2.644,1.982c4.096,-1.408 0.391,-10.617 5.945,-10.569c0.048,2.813 1.105,4.62 0.66,7.929c2.759,0.557 3.121,-1.285 5.285,-1.323c1.042,1.381 0.457,4.388 1.321,5.947c-0.992,1.429 -4.218,0.627 -3.302,3.962c-4.896,-0.71 -5.75,2.618 -5.285,7.267c2.091,1.301 4.914,-1.077 3.962,3.966c3.339,0.475 2.38,-3.348 5.285,-3.304c1.235,1.173 -0.537,1.678 0,3.962c2.995,0.132 2.785,-2.938 4.625,-3.962c2.009,0.191 0.912,3.493 2.644,3.962c2.861,0.22 1.626,-3.659 4.625,-3.302c0.299,3.091 3.719,0.118 4.625,3.302c2.13,-1.611 3.3,-4.186 3.962,-7.266c2.686,1.28 5.012,2.917 5.285,6.607c5.648,0.58 2.946,-7.187 4.625,-10.571c2.071,-0.31 1.863,1.661 2.643,2.643c2.446,-2.306 3.715,-0.446 5.285,1.321c2.653,0.231 -0.345,-5.188 3.302,-3.964c-0.268,-6.777 -7.068,-7.025 -11.891,-9.247c0.547,-1.868 -0.932,-1.712 -0.66,-3.305c2.951,-1.013 6.063,-1.863 9.909,-1.982c1.909,-0.954 1.034,-4.692 3.964,-4.625c0.76,0.782 0.746,2.337 0.66,3.967c3.248,-0.717 3.691,-4.238 5.285,-6.607c2.123,-0.141 1.608,2.355 2.641,3.304c1.387,-1.918 2.54,-4.068 5.945,-3.965c2.344,-0.299 1.736,-3.549 3.964,-3.964c2.534,-0.12 0.239,0.541 0.66,1.983c7.254,-1.534 3.774,-9.808 7.929,-14.534c-0.013,-2.19 -3.733,-0.672 -4.625,-1.981c0.028,-3.08 2.548,-6.364 0.661,-9.249c-2.564,0.076 -2.045,3.24 -4.625,3.302c-1.451,-1.933 1.622,-3.758 1.323,-6.605c-0.164,-0.718 -1.315,-0.446 -1.323,-1.32c-4.22,0.622 -5.602,4.086 -7.926,6.605c-2.464,0.702 -1.045,-2.478 -3.304,-1.981c-4.08,1.205 -3.485,7.083 -7.926,7.927c-0.285,-4.614 -4.313,-6.988 -0.662,-10.569c-0.096,-1.445 -1.664,-1.419 -3.302,-1.321c-0.146,-2.129 1.169,-2.795 0.66,-5.285c-1.323,-1.492 -1.977,3.271 -5.285,1.981c-0.016,-1.557 1.137,-1.945 0.66,-3.964c-6.047,-0.763 -5.49,5.079 -10.57,5.286c2.302,-4.083 5.237,-7.537 10.57,-8.588c0.599,1.163 2.432,1.091 2.644,2.641c2.081,0.319 1.494,-2.026 3.962,-1.32c1.209,1.873 -0.048,6.215 2.644,6.605c0.401,4.557 -2.753,6.695 0.661,9.249c2.534,-0.989 3.27,-3.774 5.285,-5.284c2.085,-0.323 2.332,1.19 4.625,0.66c1.953,-2.45 3.717,-5.092 8.589,-4.625c1.648,2.314 3.154,4.772 5.945,5.945c0.114,3.504 0.427,3.372 0,6.607c3.743,0.88 2.554,6.693 4.625,9.249c-3.681,6.01 -5.96,13.419 -14.534,14.532c8.299,12.05 -4.375,32.118 3.302,45.583c-1.698,5.841 1.953,14.141 1.983,20.479c0.038,8.357 -4.407,12.69 -7.928,19.159c-2.077,-0.332 -2.582,1.439 -3.962,0c2.424,-6.425 7.637,-8.204 8.586,-13.874c2.037,-12.14 -5.227,-28.202 -3.964,-40.958c0.698,-7.049 5.119,-18.919 0.66,-26.425c-3.377,-0.936 -7.16,2.433 -8.586,-0.66c-2.785,5.714 -8.667,4.266 -15.194,5.945c4.643,2.845 10.003,4.972 10.57,11.891c-1.855,2.33 -2.997,5.37 -6.606,5.945c-2.071,0.311 -1.863,-1.66 -2.643,-2.642c-2.033,-0.491 -1.269,1.813 -3.302,1.32c0.94,6.227 -3.02,7.55 -7.268,8.589c-0.553,-1.429 -1.71,-2.252 -1.321,-4.624c-4.69,-0.729 -4.253,3.673 -7.268,4.624c-3.918,-0.772 -5.857,-2.753 -8.586,0c-2.075,0.313 -2.699,-0.824 -3.304,-1.981c-1.389,0.814 -2.576,1.828 -3.964,2.642c-2.508,-1.364 -2.831,-2.354 -6.605,-1.32c-0.577,-2.949 -3.396,-3.651 -5.285,-5.285c-0.762,-8.692 5.79,-10.064 8.589,-15.194c-3.807,1.067 -4.621,0.022 -7.268,-1.322c-1.075,1.349 -1.386,3.459 -2.641,4.624c-4.118,-1.516 -5.499,4.633 -7.929,0.663c-1.793,0.846 -1.901,3.383 -3.962,3.962c-2.075,0.313 -1.746,-1.778 -3.304,-1.981c-2.316,0.769 -3.691,2.476 -5.945,3.302c-1.931,-0.71 -3.459,-1.823 -3.304,-4.622c-1.953,0.688 -1.941,3.344 -5.285,2.642c-1.552,-3.125 1.379,-6.808 1.981,-9.91c-2.849,0.013 -2.434,3.292 -5.285,3.304c-2.569,-0.293 -2.703,-3.021 -3.962,-4.624c-0.03,-2.011 1.395,-2.569 1.981,-3.962c-1.203,0.025 -3.757,-1.161 -4.625,-3.304c-2.406,0.454 -3.046,2.677 -5.945,2.641l0,-4.624c-2.975,0.107 -2.308,3.858 -5.285,3.964c-0.868,-1.869 1.422,-6.019 -3.964,-4.624c0.273,-4.206 0.964,-5.668 -1.981,-7.267c1.343,-3.403 -0.034,-5.492 -0.661,-8.588c-0.592,-2.133 2.155,-0.928 2.642,-1.981c-2.993,-5.225 0.687,-7.045 3.964,-9.249c2.284,-0.522 2.789,0.734 3.964,1.32c2.743,-3.042 8.295,-3.654 13.211,-3.302c2.809,-2.29 -0.597,-6.73 1.323,-9.911c3.776,0.918 4.209,-1.512 6.605,-1.981c4.04,3.007 8.244,5.852 13.211,7.929c1.887,-1.857 1.407,-6.083 3.304,-7.929c1.38,-0.279 1.75,0.453 2.643,0.661c0.862,-3.101 1.644,-6.282 3.302,-8.587c-0.078,-1.903 -2.817,-1.147 -2.641,-3.304c-3.585,1.48 -7.083,3.046 -8.589,6.607c-3.478,-1.852 -6.6,-0.312 -9.909,-2.644c-0.191,-2.835 0.919,-4.365 1.983,-5.945c-2.109,-0.317 -2.631,-2.214 -3.964,-3.304c-2.414,2.211 -0.836,8.413 -3.304,10.57c-5.175,-1.433 -4.828,2.659 -7.926,3.304c-0.283,-1.261 -1.887,-1.195 -1.323,-3.304c-1.698,0.063 -0.943,2.579 -2.641,2.643c-5.177,-0.109 -4.747,-5.825 -8.589,-7.268c0.419,-2.468 1.042,-3.783 -1.321,-4.624c-2.839,1.565 -5.526,3.281 -6.605,6.605c-2.883,-0.601 -4.257,-2.143 -5.947,0.662c-3.302,0.22 -2.798,-3.367 -5.944,-3.304c-0.602,-4.936 0.678,-7.693 -1.322,-11.23c-2.174,0.028 -3.289,1.115 -5.945,0.661c-1.339,-4.199 0.248,-7.263 -1.322,-11.23c2.739,-0.757 2.575,1.39 4.625,1.32c1.594,-1.213 -0.906,-3.894 0,-6.605c0.782,-0.98 2.496,-1.028 3.303,-1.982c-0.869,-4.196 -6.604,-3.524 -5.285,-9.909c-2.039,-0.107 -3.733,1.561 -5.285,0c0.309,-4.314 3.599,-5.65 4.625,-9.248c2.416,-0.435 2.535,1.429 4.625,1.321c1.047,-1.618 -3.336,-5.121 -1.322,-7.928c4.863,1.08 1.628,-1.855 3.304,-3.963c2.925,-0.723 3.285,1.118 5.285,1.321c1.858,-1.003 1.443,-4.282 3.303,-5.285c1.532,-0.21 2.536,0.106 3.304,0.661c1.099,-0.881 1.025,-2.938 1.981,-3.963c1.534,0.447 1.768,2.196 3.304,2.643c1.115,-2.408 1.776,-5.271 5.285,-5.285c-0.353,-2.07 -2.721,-2.124 -1.983,-5.285c0.589,-0.293 1.183,-0.581 1.323,-1.322c3.896,0.535 6.931,1.851 9.908,0c4.926,1.058 10.789,0.997 12.553,6.606c3.641,0.922 5.576,1.144 8.588,1.321c1.105,0.066 1.259,0.279 1.321,1.322c2.967,-1.839 6.632,-1.154 9.91,0c-0.87,4.614 4.716,2.77 3.302,7.927c1.371,1.493 3.663,2.063 5.947,2.643c1.546,-2.638 4.742,-3.624 5.283,-7.267c3.587,-1.128 6.081,-1.445 9.249,0c1.5,-0.702 0.251,-4.153 0.66,-5.945c-1.5,-0.73 -6.396,-0.173 -7.266,-3.304c-3.511,3.044 -5.331,-0.033 -9.91,1.322c-1.662,-2.015 -3.399,-3.131 -1.32,-5.945c-2.528,-2.318 -6.32,-3.37 -9.249,-5.285c0.77,-4.733 -0.613,-7.316 -3.304,-8.589c-0.899,-4.204 2.606,-4.002 2.644,-7.267c-1.018,-1.846 -1.852,-3.873 -3.964,-4.624c-1.169,-5.795 4.04,-5.209 3.304,-10.57l8.586,0c1.732,-0.88 1.263,-2.933 0.663,-4.625c1.913,-2.49 6.404,-2.404 7.266,-5.946c1.742,-0.201 1.704,1.379 1.981,2.644c1.907,-0.296 1.562,-2.843 3.304,-3.304c2.587,-0.385 1.686,2.717 3.304,3.304c2.849,-0.013 2.434,-3.292 5.285,-3.304c2.825,0.257 3.146,3.02 3.302,5.945c2.991,-0.093 3.226,-2.938 6.608,-2.641c-1.265,4.003 -0.17,4.765 3.302,5.285c-0.1,2.101 -1.497,2.906 -1.321,5.285c2.288,0.82 3.882,-7.818 8.589,-4.624c1.702,-0.721 3.174,-1.67 3.962,-3.304c2.366,1.748 5.06,1.02 6.607,-1.321c0.11,-5.176 -4.892,-5.238 -7.268,-7.927c1.442,-2.742 5.604,-2.764 6.607,-5.945c1.59,-0.271 1.435,1.206 3.302,0.66c1.127,-4.43 -2.971,-3.636 -2.642,-7.267c1.993,-1.799 3.937,0.458 5.945,0.661c2.516,-0.125 0.405,-4.88 1.981,-5.945c1.06,-1.088 2.753,0.579 5.275,-0.01zm113.62,138.07c-1.846,-1.236 -2.741,-3.424 -5.285,-3.963c-2.479,2.806 3.275,5.728 5.285,3.963z" fill-rule="evenodd" id="path278"/>
   </g>
  </g>
  <g stroke="null" id="svg_40">
   <path stroke="null" id="svg_17" fill="#F94848" d="m115.01724,170.98508c0,5.21993 -3.70027,12.43387 -8.17423,16.37474c-1.98426,1.7501 -4.1213,2.85442 -6.15579,2.85442c-1.28588,0 -2.56844,-0.18947 -3.67177,-0.49511c-1.51182,-0.41974 -3.11952,-0.41974 -4.63134,0c-1.10333,0.30564 -2.38589,0.49511 -3.67177,0.49511c-2.13145,0 -4.37691,-1.21312 -6.44098,-3.11083c-4.34498,-3.99109 -7.88895,-11.01034 -7.88895,-16.11833c0,-7.53629 4.91437,-12.08951 9.53543,-13.18853c2.21352,-0.52647 4.78196,-0.18732 6.85632,0.3077c2.14507,0.5129 4.37465,0.5987 6.54714,0.25748c0.43816,-0.06909 0.87289,-0.15489 1.3042,-0.25748c2.07436,-0.49511 4.64162,-0.83426 6.85632,-0.3077c4.62115,1.09902 9.53543,5.65224 9.53543,13.18853z"/>
   <path stroke="null" id="svg_18" fill="#DD2C2C" d="m106.84281,187.35954c-5.49042,0.89005 -9.71935,0.64344 -12.90586,-0.06442c-5.20328,-1.1558 -9.07406,-5.18175 -9.71915,-10.05713c-1.61563,-12.21044 7.08128,-15.76535 7.08128,-15.76535c2.54905,1.06246 5.41521,0.49511 5.41521,0.49511c-1.82903,-1.67688 0.607,-3.60594 0.607,-3.60594c-2.17249,0.34122 -4.40207,0.25542 -6.54714,-0.25748c-2.07436,-0.49511 -4.6428,-0.83426 -6.85632,-0.3077c-4.62106,1.09902 -9.53543,5.65224 -9.53543,13.18853c0,7.5353 7.71208,19.22916 14.33003,19.22916c1.28588,0 2.56844,-0.18947 3.67177,-0.49511c1.51182,-0.41974 3.11952,-0.41974 4.63134,0c1.10333,0.30564 2.38589,0.49511 3.67177,0.49511c2.0344,0 4.17154,-1.10432 6.15579,-2.85442c-0.00029,-0.00036 -0.0001,-0.00009 -0.00029,-0.00036z"/>
   <path stroke="null" id="svg_19" fill="#23B75F" d="m117.6176,146.25236c0,0 -1.14104,7.2966 -7.15071,9.42043c-5.74496,2.03058 -10.86587,-3.45941 -12.96648,-3.02709c-0.0947,0.01779 -0.18255,0.04923 -0.26472,0.09424c-0.00343,0.00108 -0.0046,0.00207 -0.0046,0.00207l0.00118,-0.00422c0.07071,-0.19675 2.37443,-6.49171 8.29058,-6.90408c6.00977,-0.41875 9.27992,2.09338 12.09476,0.41866z"/>
   <path stroke="null" id="svg_20" fill="#A3E261" d="m117.6176,146.25236c0,0 -3.65121,4.08218 -8.78583,4.08218c-4.51499,0 -10.05918,1.86105 -11.33136,2.31115c-0.15288,0.05337 -0.24307,0.08688 -0.26472,0.09424c-0.00343,0.00108 -0.0046,0.00207 -0.0046,0.00207l0.00118,-0.00422c0.07071,-0.19675 2.37443,-6.49171 8.29058,-6.90408c6.00977,-0.41875 9.27992,2.09338 12.09476,0.41866z"/>
   <ellipse stroke="null" id="svg_21" fill="#FC8181" ry="27.135" rx="41.935" cy="412.52071" cx="-950.55983" transform="matrix(-0.00968576 -0.0894005 0.097455 -0.00888525 59.0212 86.4843)"/>
   <path stroke="null" id="svg_22" d="m112.93935,163.27288c-0.42298,0.19343 -0.59495,0.66473 -0.3842,1.05275c1.06583,1.9614 1.60623,4.20194 1.60623,6.65927c0,3.47675 -1.74099,8.07911 -4.54349,12.01099c-2.87135,4.02828 -6.20976,6.43323 -8.93029,6.43323c-1.1335,0 -2.34965,-0.16405 -3.42449,-0.46187c-1.67684,-0.46466 -3.44966,-0.46466 -5.1265,0c-1.07493,0.29791 -2.29119,0.46187 -3.42468,0.46187c-2.72053,0 -6.05894,-2.40504 -8.93029,-6.43323c-2.8026,-3.93188 -4.54349,-8.53424 -4.54349,-12.01099c0,-3.28467 0.99061,-6.23702 2.86459,-8.53793c1.57665,-1.9358 3.77451,-3.35367 6.02965,-3.89011c1.68497,-0.40078 3.90672,-0.29441 6.4256,0.30717c0.27529,0.06576 0.55696,0.12596 0.83685,0.17869c0.46284,0.08706 0.9153,-0.18633 1.01049,-0.61101c0.09519,-0.42468 -0.20312,-0.83965 -0.66606,-0.92698c-0.25091,-0.04735 -0.50319,-0.10107 -0.74989,-0.16001c-2.8404,-0.67848 -5.29191,-0.78188 -7.28655,-0.30761c-2.66353,0.63347 -5.13933,2.22104 -6.9713,4.47012c-2.09669,2.5743 -3.20502,5.8516 -3.20502,9.47766c0,3.76532 1.84784,8.69695 4.82261,12.87023c3.23616,4.5401 7.01321,7.14405 10.36268,7.14405c1.31527,0 2.67068,-0.18301 3.91945,-0.52889c1.35297,-0.37491 2.7835,-0.37491 4.13667,0c1.24887,0.34607 2.60409,0.52889 3.91945,0.52889c3.34947,0 7.12652,-2.60394 10.36268,-7.14405c2.97458,-4.17337 4.82261,-9.10491 4.82261,-12.87023c0,-2.70259 -0.60083,-5.17878 -1.78594,-7.35976c-0.21066,-0.38793 -0.72442,-0.54569 -1.1474,-0.35227z"/>
   <path stroke="null" id="svg_23" d="m110.97233,162.06524c0.16913,0.19082 0.41583,0.28983 0.66449,0.28983c0.1898,0 0.38067,-0.05759 0.53933,-0.17591c0.36677,-0.27348 0.4223,-0.76796 0.12418,-1.10441c-1.78672,-2.01576 -4.13197,-3.4498 -6.60375,-4.03762c-1.99454,-0.47436 -4.44615,-0.37095 -7.28665,0.30761c-0.61532,0.14707 -1.2472,0.25847 -1.8781,0.33115c-0.46891,0.05399 -0.8013,0.44651 -0.74244,0.87676s0.48742,0.73544 0.95575,0.68108c0.70425,-0.08113 1.40948,-0.20547 2.0963,-0.3696c2.51918,-0.60166 4.74103,-0.70777 6.4257,-0.30717c2.12098,0.50455 4.14715,1.75037 5.7052,3.50828z"/>
   <path stroke="null" id="svg_24" d="m118.07868,145.59105c-0.28274,-0.16576 -0.645,-0.16477 -0.92676,0.0027c-1.22889,0.73112 -2.60947,0.46295 -4.6994,0.05714c-0.18167,-0.03531 -0.36677,-0.07115 -0.55558,-0.10718c-0.46264,-0.08813 -0.91579,0.18453 -1.01186,0.60912c-0.09607,0.42459 0.20116,0.8401 0.664,0.92823c0.18657,0.03549 0.36951,0.07106 0.54892,0.10592c1.56999,0.30492 2.98976,0.58064 4.32745,0.34095c-0.64353,2.10937 -2.33545,6.02301 -6.26597,7.4124c-3.32381,1.17485 -6.44715,-0.47229 -8.95683,-1.79574c-1.00687,-0.53096 -1.89641,-1.00002 -2.68694,-1.20396c0.89052,-1.73375 3.09944,-5.04734 7.07188,-5.32405c1.15593,-0.08059 2.30548,-0.05444 3.5141,0.07969c0.4696,0.05175 0.89561,-0.2547 0.95242,-0.68504c0.0568,-0.43043 -0.27765,-0.82159 -0.74675,-0.8737c-1.32104,-0.14662 -2.58039,-0.17492 -3.84923,-0.08661c-2.71593,0.1892 -5.14609,1.54948 -7.02761,3.9335c-1.20479,1.52666 -1.81777,3.0032 -1.97349,3.40901l-2.2525,3.13796c-0.63393,-1.75872 -1.26277,-2.86107 -1.31331,-2.94839c-0.22172,-0.3829 -0.7398,-0.52844 -1.1572,-0.32513c-0.4174,0.2034 -0.57605,0.67857 -0.35443,1.06147c0.02125,0.03657 1.99533,3.49517 2.39372,8.02709c-0.65597,-0.06747 -1.25895,-0.20556 -1.72875,-0.40078c-0.56704,-0.23565 -0.74323,-0.47472 -0.74323,-0.53509c0,-0.43357 -0.38312,-0.78503 -0.85575,-0.78503c-0.47263,0 -0.85575,0.35146 -0.85575,0.78503c0,0.4625 0.22721,1.33297 1.74853,1.96518c0.91187,0.37904 2.1055,0.58774 3.36093,0.58774c1.25592,0 2.44984,-0.2087 3.36191,-0.58765c1.52142,-0.63221 1.74873,-1.50268 1.74873,-1.96518c0,-0.43357 -0.38312,-0.78503 -0.85575,-0.78503s-0.85575,0.35146 -0.85575,0.78503c0,0.06037 -0.17618,0.29935 -0.74333,0.535c-0.50192,0.20861 -1.15622,0.35155 -1.86448,0.41336c-0.11223,-1.39505 -0.36167,-2.6919 -0.66508,-3.83791l2.95411,-4.11525c0.10077,0.00386 0.28293,0.03279 0.58986,0.14401c0.53943,0.19576 1.20715,0.54785 1.98034,0.95555c2.00737,1.0585 4.57052,2.41061 7.45079,2.41034c0.95917,0 1.954,-0.15012 2.97438,-0.51083c6.40396,-2.26372 7.64019,-9.7249 7.68975,-10.04141c0.04769,-0.30438 -0.10332,-0.60669 -0.38606,-0.77245z"/>
   <g stroke="null" id="svg_25"/>
   <g stroke="null" id="svg_26"/>
   <g stroke="null" id="svg_27"/>
   <g stroke="null" id="svg_28"/>
   <g stroke="null" id="svg_29"/>
   <g stroke="null" id="svg_30"/>
   <g stroke="null" id="svg_31"/>
   <g stroke="null" id="svg_32"/>
   <g stroke="null" id="svg_33"/>
   <g stroke="null" id="svg_34"/>
   <g stroke="null" id="svg_35"/>
   <g stroke="null" id="svg_36"/>
   <g stroke="null" id="svg_37"/>
   <g stroke="null" id="svg_38"/>
   <g stroke="null" id="svg_39"/>
  </g>
  <g stroke="null" id="svg_64">
   <path stroke="null" id="svg_41" fill="#F94848" d="m223.01724,101.98508c0,5.21992 -3.70028,12.43387 -8.17423,16.37473c-1.98426,1.7501 -4.1213,2.85442 -6.1558,2.85442c-1.28588,0 -2.56844,-0.18947 -3.67177,-0.49511c-1.51182,-0.41973 -3.11952,-0.41973 -4.63134,0c-1.10334,0.30564 -2.38589,0.49511 -3.67178,0.49511c-2.13145,0 -4.3769,-1.21312 -6.44098,-3.11082c-4.34497,-3.99109 -7.88894,-11.01035 -7.88894,-16.11833c0,-7.5363 4.91437,-12.08952 9.53542,-13.18854c2.21353,-0.52646 4.78197,-0.18732 6.85633,0.30771c2.14506,0.5129 4.37465,0.5987 6.54714,0.25748c0.43816,-0.06909 0.87289,-0.15488 1.3042,-0.25748c2.07436,-0.49512 4.64162,-0.83426 6.85632,-0.30771c4.62115,1.09902 9.53543,5.65224 9.53543,13.18854z"/>
   <path stroke="null" id="svg_42" fill="#DD2C2C" d="m214.84281,118.35954c-5.49042,0.89006 -9.71935,0.64344 -12.90586,-0.06441c-5.20328,-1.1558 -9.07405,-5.18175 -9.71915,-10.05714c-1.61563,-12.21043 7.08128,-15.76534 7.08128,-15.76534c2.54905,1.06245 5.41521,0.49511 5.41521,0.49511c-1.82903,-1.67688 0.607,-3.60594 0.607,-3.60594c-2.17249,0.34122 -4.40208,0.25542 -6.54714,-0.25748c-2.07436,-0.49512 -4.6428,-0.83426 -6.85633,-0.30771c-4.62105,1.09902 -9.53542,5.65224 -9.53542,13.18854c0,7.5353 7.71207,19.22915 14.33002,19.22915c1.28589,0 2.56844,-0.18947 3.67178,-0.49511c1.51182,-0.41973 3.11952,-0.41973 4.63134,0c1.10333,0.30564 2.38589,0.49511 3.67177,0.49511c2.0344,0 4.17154,-1.10432 6.15579,-2.85442c-0.00029,-0.00036 -0.00009,-0.00009 -0.00029,-0.00036z"/>
   <path stroke="null" id="svg_43" fill="#23B75F" d="m225.6176,77.25236c0,0 -1.14103,7.2966 -7.15071,9.42044c-5.74496,2.03058 -10.86587,-3.45941 -12.96648,-3.0271c-0.0947,0.01779 -0.18255,0.04923 -0.26472,0.09424c-0.00342,0.00108 -0.0046,0.00207 -0.0046,0.00207l0.00118,-0.00422c0.0707,-0.19675 2.37443,-6.49172 8.29057,-6.90408c6.00978,-0.41875 9.27992,2.09338 12.09476,0.41865z"/>
   <path stroke="null" id="svg_44" fill="#A3E261" d="m225.6176,77.25236c0,0 -3.6512,4.08219 -8.78583,4.08219c-4.51499,0 -10.05918,1.86105 -11.33136,2.31115c-0.15287,0.05337 -0.24307,0.08688 -0.26472,0.09424c-0.00342,0.00108 -0.0046,0.00207 -0.0046,0.00207l0.00118,-0.00422c0.0707,-0.19675 2.37443,-6.49172 8.29057,-6.90408c6.00978,-0.41875 9.27992,2.09338 12.09476,0.41865z"/>
   <ellipse stroke="null" id="svg_45" fill="#FC8181" ry="27.135" rx="41.935" cy="1585.84231" cx="-295.36507" transform="matrix(-0.00968576 -0.0894005 0.097455 -0.00888525 59.0212 86.4843)"/>
   <path stroke="null" id="svg_46" d="m220.93935,94.27288c-0.42298,0.19342 -0.59495,0.66473 -0.38419,1.05275c1.06582,1.9614 1.60622,4.20194 1.60622,6.65927c0,3.47674 -1.74098,8.07911 -4.54349,12.01099c-2.87135,4.02828 -6.20975,6.43323 -8.93029,6.43323c-1.13349,0 -2.34965,-0.16405 -3.42448,-0.46188c-1.67685,-0.46465 -3.44966,-0.46465 -5.1265,0c-1.07494,0.29792 -2.29119,0.46188 -3.42469,0.46188c-2.72053,0 -6.05893,-2.40504 -8.93029,-6.43323c-2.8026,-3.93188 -4.54349,-8.53425 -4.54349,-12.01099c0,-3.28467 0.99061,-6.23702 2.8646,-8.53793c1.57665,-1.9358 3.7745,-3.35367 6.02965,-3.89011c1.68497,-0.40077 3.90672,-0.2944 6.4256,0.30717c0.2753,0.06576 0.55696,0.12596 0.83686,0.17869c0.46284,0.08706 0.9153,-0.18633 1.01049,-0.611c0.09519,-0.42468 -0.20312,-0.83966 -0.66606,-0.92698c-0.2509,-0.04735 -0.50318,-0.10107 -0.74988,-0.16001c-2.84041,-0.67847 -5.29191,-0.78188 -7.28655,-0.30761c-2.66354,0.63347 -5.13933,2.22104 -6.9713,4.47012c-2.09669,2.57429 -3.20502,5.85159 -3.20502,9.47766c0,3.76531 1.84784,8.69694 4.82261,12.87023c3.23616,4.5401 7.01321,7.14404 10.36268,7.14404c1.31527,0 2.67069,-0.183 3.91946,-0.52889c1.35297,-0.37491 2.7835,-0.37491 4.13667,0c1.24886,0.34607 2.60408,0.52889 3.91945,0.52889c3.34947,0 7.12652,-2.60394 10.36268,-7.14404c2.97458,-4.17338 4.82261,-9.10492 4.82261,-12.87023c0,-2.70259 -0.60083,-5.17878 -1.78594,-7.35976c-0.21066,-0.38793 -0.72443,-0.54569 -1.14741,-0.35226z"/>
   <path stroke="null" id="svg_47" d="m218.97233,93.06524c0.16914,0.19082 0.41583,0.28982 0.66449,0.28982c0.1898,0 0.38067,-0.05759 0.53933,-0.17591c0.36676,-0.27347 0.42229,-0.76795 0.12418,-1.10441c-1.78673,-2.01576 -4.13197,-3.44979 -6.60375,-4.03762c-1.99454,-0.47436 -4.44614,-0.37095 -7.28665,0.30761c-0.61532,0.14707 -1.2472,0.25848 -1.87809,0.33116c-0.46892,0.05399 -0.80131,0.4465 -0.74245,0.87675s0.48742,0.73544 0.95575,0.68109c0.70425,-0.08113 1.40948,-0.20547 2.09629,-0.36961c2.51918,-0.60166 4.74103,-0.70777 6.42571,-0.30717c2.12097,0.50455 4.14715,1.75037 5.70519,3.50829z"/>
   <path stroke="null" id="svg_48" d="m226.07868,76.59105c-0.28274,-0.16576 -0.645,-0.16477 -0.92676,0.00269c-1.22888,0.73113 -2.60947,0.46295 -4.6994,0.05714c-0.18167,-0.03531 -0.36677,-0.07115 -0.55559,-0.10718c-0.46264,-0.08813 -0.91578,0.18453 -1.01186,0.60912c-0.09607,0.42459 0.20116,0.8401 0.664,0.92824c0.18657,0.03548 0.36951,0.07106 0.54893,0.10592c1.56999,0.30492 2.98975,0.58064 4.32744,0.34094c-0.64353,2.10937 -2.33545,6.02302 -6.26597,7.4124c-3.32381,1.17485 -6.44715,-0.47229 -8.95683,-1.79573c-1.00687,-0.53096 -1.89641,-1.00002 -2.68694,-1.20396c0.89052,-1.73375 3.09944,-5.04734 7.07188,-5.32405c1.15592,-0.08059 2.30548,-0.05445 3.5141,0.07969c0.4696,0.05175 0.89561,-0.2547 0.95241,-0.68504c0.05681,-0.43043 -0.27764,-0.82159 -0.74675,-0.8737c-1.32104,-0.14662 -2.58039,-0.17492 -3.84923,-0.08661c-2.71593,0.18921 -5.14609,1.54949 -7.02761,3.9335c-1.2048,1.52667 -1.81777,3.0032 -1.97349,3.40901l-2.2525,3.13796c-0.63393,-1.75873 -1.26277,-2.86107 -1.31331,-2.9484c-0.22172,-0.3829 -0.7398,-0.52844 -1.15719,-0.32513c-0.4174,0.2034 -0.57606,0.67857 -0.35443,1.06147c0.02125,0.03656 1.99533,3.49516 2.39372,8.02709c-0.65596,-0.06747 -1.25895,-0.20556 -1.72874,-0.40078c-0.56705,-0.23565 -0.74323,-0.47472 -0.74323,-0.53509c0,-0.43357 -0.38312,-0.78503 -0.85575,-0.78503c-0.47264,0 -0.85576,0.35146 -0.85576,0.78503c0,0.4625 0.22721,1.33297 1.74853,1.96518c0.91187,0.37903 2.1055,0.58773 3.36093,0.58773c1.25592,0 2.44984,-0.2087 3.36191,-0.58764c1.52141,-0.63221 1.74872,-1.50268 1.74872,-1.96518c0,-0.43357 -0.38312,-0.78503 -0.85575,-0.78503s-0.85576,0.35146 -0.85576,0.78503c0,0.06037 -0.17618,0.29935 -0.74332,0.535c-0.50192,0.20861 -1.15622,0.35155 -1.86449,0.41336c-0.11223,-1.39505 -0.36167,-2.6919 -0.66507,-3.83791l2.9541,-4.11525c0.10078,0.00387 0.28294,0.0328 0.58987,0.14402c0.53942,0.19576 1.20714,0.54785 1.98034,0.95555c2.00737,1.0585 4.57052,2.4106 7.45078,2.41033c0.95918,0 1.954,-0.15012 2.97438,-0.51083c6.40396,-2.26372 7.6402,-9.7249 7.68975,-10.04141c0.0477,-0.30438 -0.10332,-0.6067 -0.38606,-0.77245z"/>
   <g stroke="null" id="svg_49"/>
   <g stroke="null" id="svg_50"/>
   <g stroke="null" id="svg_51"/>
   <g stroke="null" id="svg_52"/>
   <g stroke="null" id="svg_53"/>
   <g stroke="null" id="svg_54"/>
   <g stroke="null" id="svg_55"/>
   <g stroke="null" id="svg_56"/>
   <g stroke="null" id="svg_57"/>
   <g stroke="null" id="svg_58"/>
   <g stroke="null" id="svg_59"/>
   <g stroke="null" id="svg_60"/>
   <g stroke="null" id="svg_61"/>
   <g stroke="null" id="svg_62"/>
   <g stroke="null" id="svg_63"/>
  </g>
  <g stroke="null" id="svg_88">
   <path stroke="null" id="svg_65" fill="#F94848" d="m295.01724,164.98508c0,5.21992 -3.70028,12.43387 -8.17423,16.37473c-1.98426,1.7501 -4.1213,2.85442 -6.1558,2.85442c-1.28588,0 -2.56844,-0.18947 -3.67177,-0.49511c-1.51182,-0.41973 -3.11952,-0.41973 -4.63134,0c-1.10334,0.30564 -2.38589,0.49511 -3.67178,0.49511c-2.13145,0 -4.3769,-1.21312 -6.44098,-3.11082c-4.34497,-3.99109 -7.88894,-11.01035 -7.88894,-16.11833c0,-7.5363 4.91437,-12.08952 9.53542,-13.18854c2.21353,-0.52646 4.78197,-0.18732 6.85633,0.30771c2.14506,0.5129 4.37465,0.5987 6.54714,0.25748c0.43816,-0.06909 0.87289,-0.15488 1.3042,-0.25748c2.07436,-0.49512 4.64162,-0.83426 6.85632,-0.30771c4.62115,1.09902 9.53543,5.65224 9.53543,13.18854z"/>
   <path stroke="null" id="svg_66" fill="#DD2C2C" d="m286.84281,181.35954c-5.49042,0.89006 -9.71935,0.64344 -12.90586,-0.06441c-5.20328,-1.1558 -9.07405,-5.18175 -9.71915,-10.05714c-1.61563,-12.21043 7.08128,-15.76534 7.08128,-15.76534c2.54905,1.06245 5.41521,0.49511 5.41521,0.49511c-1.82903,-1.67688 0.607,-3.60594 0.607,-3.60594c-2.17249,0.34122 -4.40208,0.25542 -6.54714,-0.25748c-2.07436,-0.49512 -4.6428,-0.83426 -6.85633,-0.30771c-4.62105,1.09902 -9.53542,5.65224 -9.53542,13.18854c0,7.5353 7.71207,19.22915 14.33002,19.22915c1.28589,0 2.56844,-0.18947 3.67178,-0.49511c1.51182,-0.41973 3.11952,-0.41973 4.63134,0c1.10333,0.30564 2.38589,0.49511 3.67177,0.49511c2.0344,0 4.17154,-1.10432 6.15579,-2.85442c-0.00029,-0.00036 -0.00009,-0.00009 -0.00029,-0.00036z"/>
   <path stroke="null" id="svg_67" fill="#23B75F" d="m297.6176,140.25236c0,0 -1.14103,7.2966 -7.15071,9.42044c-5.74496,2.03058 -10.86587,-3.45941 -12.96648,-3.0271c-0.0947,0.01779 -0.18255,0.04923 -0.26472,0.09424c-0.00342,0.00108 -0.0046,0.00207 -0.0046,0.00207l0.00118,-0.00422c0.0707,-0.19675 2.37443,-6.49172 8.29057,-6.90408c6.00978,-0.41875 9.27992,2.09338 12.09476,0.41865z"/>
   <path stroke="null" id="svg_68" fill="#A3E261" d="m297.6176,140.25236c0,0 -3.6512,4.08219 -8.78583,4.08219c-4.51499,0 -10.05918,1.86105 -11.33136,2.31115c-0.15287,0.05337 -0.24307,0.08688 -0.26472,0.09424c-0.00342,0.00108 -0.0046,0.00207 -0.0046,0.00207l0.00118,-0.00422c0.0707,-0.19675 2.37443,-6.49172 8.29057,-6.90408c6.00978,-0.41875 9.27992,2.09338 12.09476,0.41865z"/>
   <ellipse stroke="null" id="svg_69" fill="#FC8181" ry="27.135" rx="41.935" cy="2248.06609" cx="-1065.87551" transform="matrix(-0.00968576 -0.0894005 0.097455 -0.00888525 59.0212 86.4843)"/>
   <path stroke="null" id="svg_70" d="m292.93935,157.27288c-0.42298,0.19342 -0.59495,0.66473 -0.38419,1.05275c1.06582,1.9614 1.60622,4.20194 1.60622,6.65927c0,3.47674 -1.74098,8.07911 -4.54349,12.01099c-2.87135,4.02828 -6.20975,6.43323 -8.93029,6.43323c-1.13349,0 -2.34965,-0.16405 -3.42448,-0.46188c-1.67685,-0.46465 -3.44966,-0.46465 -5.1265,0c-1.07494,0.29792 -2.29119,0.46188 -3.42469,0.46188c-2.72053,0 -6.05893,-2.40504 -8.93029,-6.43323c-2.8026,-3.93188 -4.54349,-8.53425 -4.54349,-12.01099c0,-3.28467 0.99061,-6.23702 2.8646,-8.53793c1.57665,-1.9358 3.7745,-3.35367 6.02965,-3.89011c1.68497,-0.40077 3.90672,-0.2944 6.4256,0.30717c0.2753,0.06576 0.55696,0.12596 0.83686,0.17869c0.46284,0.08706 0.9153,-0.18633 1.01049,-0.611c0.09519,-0.42468 -0.20312,-0.83966 -0.66606,-0.92698c-0.2509,-0.04735 -0.50318,-0.10107 -0.74988,-0.16001c-2.84041,-0.67847 -5.29191,-0.78188 -7.28655,-0.30761c-2.66354,0.63347 -5.13933,2.22104 -6.9713,4.47012c-2.09669,2.57429 -3.20502,5.85159 -3.20502,9.47766c0,3.76531 1.84784,8.69694 4.82261,12.87023c3.23616,4.5401 7.01321,7.14404 10.36268,7.14404c1.31527,0 2.67069,-0.183 3.91946,-0.52889c1.35297,-0.37491 2.7835,-0.37491 4.13667,0c1.24886,0.34607 2.60408,0.52889 3.91945,0.52889c3.34947,0 7.12652,-2.60394 10.36268,-7.14404c2.97458,-4.17338 4.82261,-9.10492 4.82261,-12.87023c0,-2.70259 -0.60083,-5.17878 -1.78594,-7.35976c-0.21066,-0.38793 -0.72443,-0.54569 -1.14741,-0.35226z"/>
   <path stroke="null" id="svg_71" d="m290.97233,156.06524c0.16914,0.19082 0.41583,0.28982 0.66449,0.28982c0.1898,0 0.38067,-0.05759 0.53933,-0.17591c0.36676,-0.27347 0.42229,-0.76795 0.12418,-1.10441c-1.78673,-2.01576 -4.13197,-3.44979 -6.60375,-4.03762c-1.99454,-0.47436 -4.44614,-0.37095 -7.28665,0.30761c-0.61532,0.14707 -1.2472,0.25848 -1.87809,0.33116c-0.46892,0.05399 -0.80131,0.4465 -0.74245,0.87675s0.48742,0.73544 0.95575,0.68109c0.70425,-0.08113 1.40948,-0.20547 2.09629,-0.36961c2.51918,-0.60166 4.74103,-0.70777 6.42571,-0.30717c2.12097,0.50455 4.14715,1.75037 5.70519,3.50829z"/>
   <path stroke="null" id="svg_72" d="m298.07868,139.59105c-0.28274,-0.16576 -0.645,-0.16477 -0.92676,0.00269c-1.22888,0.73113 -2.60947,0.46295 -4.6994,0.05714c-0.18167,-0.03531 -0.36677,-0.07115 -0.55559,-0.10718c-0.46264,-0.08813 -0.91578,0.18453 -1.01186,0.60912c-0.09607,0.42459 0.20116,0.8401 0.664,0.92824c0.18657,0.03548 0.36951,0.07106 0.54893,0.10592c1.56999,0.30492 2.98975,0.58064 4.32744,0.34094c-0.64353,2.10937 -2.33545,6.02302 -6.26597,7.4124c-3.32381,1.17485 -6.44715,-0.47229 -8.95683,-1.79573c-1.00687,-0.53096 -1.89641,-1.00002 -2.68694,-1.20396c0.89052,-1.73375 3.09944,-5.04734 7.07188,-5.32405c1.15592,-0.08059 2.30548,-0.05445 3.5141,0.07969c0.4696,0.05175 0.89561,-0.2547 0.95241,-0.68504c0.05681,-0.43043 -0.27764,-0.82159 -0.74675,-0.8737c-1.32104,-0.14662 -2.58039,-0.17492 -3.84923,-0.08661c-2.71593,0.18921 -5.14609,1.54949 -7.02761,3.9335c-1.2048,1.52667 -1.81777,3.0032 -1.97349,3.40901l-2.2525,3.13796c-0.63393,-1.75873 -1.26277,-2.86107 -1.31331,-2.9484c-0.22172,-0.3829 -0.7398,-0.52844 -1.15719,-0.32513c-0.4174,0.2034 -0.57606,0.67857 -0.35443,1.06147c0.02125,0.03656 1.99533,3.49516 2.39372,8.02709c-0.65596,-0.06747 -1.25895,-0.20556 -1.72874,-0.40078c-0.56705,-0.23565 -0.74323,-0.47472 -0.74323,-0.53509c0,-0.43357 -0.38312,-0.78503 -0.85575,-0.78503c-0.47264,0 -0.85576,0.35146 -0.85576,0.78503c0,0.4625 0.22721,1.33297 1.74853,1.96518c0.91187,0.37903 2.1055,0.58773 3.36093,0.58773c1.25592,0 2.44984,-0.2087 3.36191,-0.58764c1.52141,-0.63221 1.74872,-1.50268 1.74872,-1.96518c0,-0.43357 -0.38312,-0.78503 -0.85575,-0.78503s-0.85576,0.35146 -0.85576,0.78503c0,0.06037 -0.17618,0.29935 -0.74332,0.535c-0.50192,0.20861 -1.15622,0.35155 -1.86449,0.41336c-0.11223,-1.39505 -0.36167,-2.6919 -0.66507,-3.83791l2.9541,-4.11525c0.10078,0.00387 0.28294,0.0328 0.58987,0.14402c0.53942,0.19576 1.20714,0.54785 1.98034,0.95555c2.00737,1.0585 4.57052,2.4106 7.45078,2.41033c0.95918,0 1.954,-0.15012 2.97438,-0.51083c6.40396,-2.26372 7.6402,-9.7249 7.68975,-10.04141c0.0477,-0.30438 -0.10332,-0.6067 -0.38606,-0.77245z"/>
   <g stroke="null" id="svg_73"/>
   <g stroke="null" id="svg_74"/>
   <g stroke="null" id="svg_75"/>
   <g stroke="null" id="svg_76"/>
   <g stroke="null" id="svg_77"/>
   <g stroke="null" id="svg_78"/>
   <g stroke="null" id="svg_79"/>
   <g stroke="null" id="svg_80"/>
   <g stroke="null" id="svg_81"/>
   <g stroke="null" id="svg_82"/>
   <g stroke="null" id="svg_83"/>
   <g stroke="null" id="svg_84"/>
   <g stroke="null" id="svg_85"/>
   <g stroke="null" id="svg_86"/>
   <g stroke="null" id="svg_87"/>
  </g>
  <g stroke="null" id="svg_112">
   <path stroke="null" id="svg_89" fill="#F94848" d="m174.01724,256.98508c0,5.21992 -3.70028,12.43387 -8.17423,16.37473c-1.98426,1.7501 -4.1213,2.85442 -6.1558,2.85442c-1.28588,0 -2.56844,-0.18947 -3.67177,-0.49511c-1.51182,-0.41973 -3.11952,-0.41973 -4.63134,0c-1.10334,0.30564 -2.38589,0.49511 -3.67178,0.49511c-2.13145,0 -4.3769,-1.21312 -6.44098,-3.11082c-4.34497,-3.99109 -7.88894,-11.01035 -7.88894,-16.11833c0,-7.5363 4.91437,-12.08952 9.53542,-13.18854c2.21353,-0.52646 4.78197,-0.18732 6.85633,0.30771c2.14506,0.5129 4.37465,0.5987 6.54714,0.25748c0.43816,-0.06909 0.87289,-0.15488 1.3042,-0.25748c2.07436,-0.49512 4.64162,-0.83426 6.85632,-0.30771c4.62115,1.09902 9.53543,5.65224 9.53543,13.18854z"/>
   <path stroke="null" id="svg_90" fill="#DD2C2C" d="m165.84281,273.35954c-5.49042,0.89006 -9.71935,0.64344 -12.90586,-0.06441c-5.20328,-1.1558 -9.07405,-5.18175 -9.71915,-10.05714c-1.61563,-12.21043 7.08128,-15.76534 7.08128,-15.76534c2.54905,1.06245 5.41521,0.49511 5.41521,0.49511c-1.82903,-1.67688 0.607,-3.60594 0.607,-3.60594c-2.17249,0.34122 -4.40208,0.25542 -6.54714,-0.25748c-2.07436,-0.49512 -4.6428,-0.83426 -6.85633,-0.30771c-4.62105,1.09902 -9.53542,5.65224 -9.53542,13.18854c0,7.5353 7.71207,19.22915 14.33002,19.22915c1.28589,0 2.56844,-0.18947 3.67178,-0.49511c1.51182,-0.41973 3.11952,-0.41973 4.63134,0c1.10333,0.30564 2.38589,0.49511 3.67177,0.49511c2.0344,0 4.17154,-1.10432 6.15579,-2.85442c-0.00029,-0.00036 -0.00009,-0.00009 -0.00029,-0.00036z"/>
   <path stroke="null" id="svg_91" fill="#23B75F" d="m176.6176,232.25236c0,0 -1.14103,7.2966 -7.15071,9.42044c-5.74496,2.03058 -10.86587,-3.45941 -12.96648,-3.0271c-0.0947,0.01779 -0.18255,0.04923 -0.26472,0.09424c-0.00342,0.00108 -0.0046,0.00207 -0.0046,0.00207l0.00118,-0.00422c0.0707,-0.19675 2.37443,-6.49172 8.29057,-6.90408c6.00978,-0.41875 9.27992,2.09338 12.09476,0.41865z"/>
   <path stroke="null" id="svg_92" fill="#A3E261" d="m176.6176,232.25236c0,0 -3.6512,4.08219 -8.78583,4.08219c-4.51499,0 -10.05918,1.86105 -11.33136,2.31115c-0.15287,0.05337 -0.24307,0.08688 -0.26472,0.09424c-0.00342,0.00108 -0.0046,0.00207 -0.0046,0.00207l0.00118,-0.00422c0.0707,-0.19675 2.37443,-6.49172 8.29057,-6.90408c6.00978,-0.41875 9.27992,2.09338 12.09476,0.41865z"/>
   <ellipse stroke="null" id="svg_93" fill="#FC8181" ry="27.135" rx="41.935" cy="917.33523" cx="-1962.69506" transform="matrix(-0.00968576 -0.0894005 0.097455 -0.00888525 59.0212 86.4843)"/>
   <path stroke="null" id="svg_94" d="m171.93935,249.27288c-0.42298,0.19342 -0.59495,0.66473 -0.38419,1.05275c1.06582,1.9614 1.60622,4.20194 1.60622,6.65927c0,3.47674 -1.74098,8.07911 -4.54349,12.01099c-2.87135,4.02828 -6.20975,6.43323 -8.93029,6.43323c-1.13349,0 -2.34965,-0.16405 -3.42448,-0.46188c-1.67685,-0.46465 -3.44966,-0.46465 -5.1265,0c-1.07494,0.29792 -2.29119,0.46188 -3.42469,0.46188c-2.72053,0 -6.05893,-2.40504 -8.93029,-6.43323c-2.8026,-3.93188 -4.54349,-8.53425 -4.54349,-12.01099c0,-3.28467 0.99061,-6.23702 2.8646,-8.53793c1.57665,-1.9358 3.7745,-3.35367 6.02965,-3.89011c1.68497,-0.40077 3.90672,-0.2944 6.4256,0.30717c0.2753,0.06576 0.55696,0.12596 0.83686,0.17869c0.46284,0.08706 0.9153,-0.18633 1.01049,-0.611c0.09519,-0.42468 -0.20312,-0.83966 -0.66606,-0.92698c-0.2509,-0.04735 -0.50318,-0.10107 -0.74988,-0.16001c-2.84041,-0.67847 -5.29191,-0.78188 -7.28655,-0.30761c-2.66354,0.63347 -5.13933,2.22104 -6.9713,4.47012c-2.09669,2.57429 -3.20502,5.85159 -3.20502,9.47766c0,3.76531 1.84784,8.69694 4.82261,12.87023c3.23616,4.5401 7.01321,7.14404 10.36268,7.14404c1.31527,0 2.67069,-0.183 3.91946,-0.52889c1.35297,-0.37491 2.7835,-0.37491 4.13667,0c1.24886,0.34607 2.60408,0.52889 3.91945,0.52889c3.34947,0 7.12652,-2.60394 10.36268,-7.14404c2.97458,-4.17338 4.82261,-9.10492 4.82261,-12.87023c0,-2.70259 -0.60083,-5.17878 -1.78594,-7.35976c-0.21066,-0.38793 -0.72443,-0.54569 -1.14741,-0.35226z"/>
   <path stroke="null" id="svg_95" d="m169.97233,248.06524c0.16914,0.19082 0.41583,0.28982 0.66449,0.28982c0.1898,0 0.38067,-0.05759 0.53933,-0.17591c0.36676,-0.27347 0.42229,-0.76795 0.12418,-1.10441c-1.78673,-2.01576 -4.13197,-3.44979 -6.60375,-4.03762c-1.99454,-0.47436 -4.44614,-0.37095 -7.28665,0.30761c-0.61532,0.14707 -1.2472,0.25848 -1.87809,0.33116c-0.46892,0.05399 -0.80131,0.4465 -0.74245,0.87675s0.48742,0.73544 0.95575,0.68109c0.70425,-0.08113 1.40948,-0.20547 2.09629,-0.36961c2.51918,-0.60166 4.74103,-0.70777 6.42571,-0.30717c2.12097,0.50455 4.14715,1.75037 5.70519,3.50829z"/>
   <path stroke="null" id="svg_96" d="m177.07868,231.59105c-0.28274,-0.16576 -0.645,-0.16477 -0.92676,0.00269c-1.22888,0.73113 -2.60947,0.46295 -4.6994,0.05714c-0.18167,-0.03531 -0.36677,-0.07115 -0.55559,-0.10718c-0.46264,-0.08813 -0.91578,0.18453 -1.01186,0.60912c-0.09607,0.42459 0.20116,0.8401 0.664,0.92824c0.18657,0.03548 0.36951,0.07106 0.54893,0.10592c1.56999,0.30492 2.98975,0.58064 4.32744,0.34094c-0.64353,2.10937 -2.33545,6.02302 -6.26597,7.4124c-3.32381,1.17485 -6.44715,-0.47229 -8.95683,-1.79573c-1.00687,-0.53096 -1.89641,-1.00002 -2.68694,-1.20396c0.89052,-1.73375 3.09944,-5.04734 7.07188,-5.32405c1.15592,-0.08059 2.30548,-0.05445 3.5141,0.07969c0.4696,0.05175 0.89561,-0.2547 0.95241,-0.68504c0.05681,-0.43043 -0.27764,-0.82159 -0.74675,-0.8737c-1.32104,-0.14662 -2.58039,-0.17492 -3.84923,-0.08661c-2.71593,0.18921 -5.14609,1.54949 -7.02761,3.9335c-1.2048,1.52667 -1.81777,3.0032 -1.97349,3.40901l-2.2525,3.13796c-0.63393,-1.75873 -1.26277,-2.86107 -1.31331,-2.9484c-0.22172,-0.3829 -0.7398,-0.52844 -1.15719,-0.32513c-0.4174,0.2034 -0.57606,0.67857 -0.35443,1.06147c0.02125,0.03656 1.99533,3.49516 2.39372,8.02709c-0.65596,-0.06747 -1.25895,-0.20556 -1.72874,-0.40078c-0.56705,-0.23565 -0.74323,-0.47472 -0.74323,-0.53509c0,-0.43357 -0.38312,-0.78503 -0.85575,-0.78503c-0.47264,0 -0.85576,0.35146 -0.85576,0.78503c0,0.4625 0.22721,1.33297 1.74853,1.96518c0.91187,0.37903 2.1055,0.58773 3.36093,0.58773c1.25592,0 2.44984,-0.2087 3.36191,-0.58764c1.52141,-0.63221 1.74872,-1.50268 1.74872,-1.96518c0,-0.43357 -0.38312,-0.78503 -0.85575,-0.78503s-0.85576,0.35146 -0.85576,0.78503c0,0.06037 -0.17618,0.29935 -0.74332,0.535c-0.50192,0.20861 -1.15622,0.35155 -1.86449,0.41336c-0.11223,-1.39505 -0.36167,-2.6919 -0.66507,-3.83791l2.9541,-4.11525c0.10078,0.00387 0.28294,0.0328 0.58987,0.14402c0.53942,0.19576 1.20714,0.54785 1.98034,0.95555c2.00737,1.0585 4.57052,2.4106 7.45078,2.41033c0.95918,0 1.954,-0.15012 2.97438,-0.51083c6.40396,-2.26372 7.6402,-9.7249 7.68975,-10.04141c0.0477,-0.30438 -0.10332,-0.6067 -0.38606,-0.77245z"/>
   <g stroke="null" id="svg_97"/>
   <g stroke="null" id="svg_98"/>
   <g stroke="null" id="svg_99"/>
   <g stroke="null" id="svg_100"/>
   <g stroke="null" id="svg_101"/>
   <g stroke="null" id="svg_102"/>
   <g stroke="null" id="svg_103"/>
   <g stroke="null" id="svg_104"/>
   <g stroke="null" id="svg_105"/>
   <g stroke="null" id="svg_106"/>
   <g stroke="null" id="svg_107"/>
   <g stroke="null" id="svg_108"/>
   <g stroke="null" id="svg_109"/>
   <g stroke="null" id="svg_110"/>
   <g stroke="null" id="svg_111"/>
  </g>
 </g>
</svg>